<svg width="120" height="31" viewBox="0 0 120 31" fill="none" xmlns="http://www.w3.org/2000/svg">
    <path d="M37.9674 11.3373C37.7442 9.70085 36.825 8.29816 35.1573 7.01236L34.1987 6.37595L33.5552 7.32407C32.7411 8.54493 32.3209 10.2463 32.4522 11.8698C32.5178 12.4413 32.7017 13.4673 33.2926 14.3635C32.7017 14.6752 31.533 15.1168 29.9703 15.0908H0.161795L0.109269 15.4285C-0.166493 17.065 -0.166493 22.1563 3.18204 26.0786C5.72956 29.0528 9.5377 30.5724 14.5277 30.5724C25.3218 30.5724 33.3057 25.663 37.0482 16.7273C38.5189 16.7533 41.6836 16.7403 43.3119 13.6622C43.3513 13.5972 43.4564 13.4024 43.7322 12.8309L43.8897 12.5062L42.9705 11.8958C41.9857 11.2464 39.7139 11.0126 37.9674 11.3373ZM24.0086 0.42749H19.4783V4.50569H24.0086V0.42749ZM24.0086 5.32393H19.4783V9.38914H24.0086V5.32393ZM18.651 5.32393H14.1206V9.38914H18.651V5.32393ZM13.2933 5.32393H8.76294V9.38914H13.2933V5.32393ZM7.93565 10.2074H3.40528V14.2856H7.93565V10.2074ZM13.2933 10.2074H8.76294V14.2856H13.2933V10.2074ZM18.651 10.2074H14.1206V14.2856H18.651V10.2074ZM24.0086 10.2074H19.4783V14.2856H24.0086V10.2074ZM29.3663 10.2074H24.8359V14.2856H29.3663V10.2074ZM56.9031 9.29823C56.5748 9.29823 56.299 9.40213 56.0758 9.62293C55.8525 9.84372 55.7475 10.1165 55.7475 10.4412V15.961C54.6313 15.0519 53.3313 14.5973 51.8606 14.5973C50.1535 14.5973 48.6827 15.2077 47.4746 16.4156C46.2665 17.6235 45.6625 19.0781 45.6625 20.7925C45.6625 22.5069 46.2665 23.9616 47.4746 25.1694C48.6827 26.3773 50.1403 26.9748 51.8606 26.9748C53.5545 26.9748 55.0121 26.3773 56.2465 25.1694C57.4546 23.9746 58.0586 22.5199 58.0586 20.7925V10.4412C58.0586 10.1035 57.9405 9.83073 57.7172 9.62293C57.5071 9.40213 57.2314 9.29823 56.9031 9.29823ZM55.4455 22.2861C55.2485 22.7537 54.9727 23.1693 54.6182 23.52C54.2636 23.8707 53.8566 24.1564 53.3838 24.3642C52.9111 24.572 52.4121 24.6759 51.8737 24.6759C51.3222 24.6759 50.8232 24.572 50.3504 24.3642C49.8777 24.1564 49.4706 23.8836 49.1161 23.533C48.7615 23.1823 48.4989 22.7667 48.2888 22.2991C48.0918 21.8316 47.9868 21.325 47.9868 20.7925C47.9868 20.26 48.0918 19.7665 48.2888 19.2859C48.4858 18.8184 48.7615 18.4028 49.1161 18.0521C49.4575 17.7014 49.8777 17.4287 50.3504 17.2208C50.8232 17.013 51.3353 16.9091 51.8737 16.9091C52.4121 16.9091 52.9242 17.013 53.3838 17.2208C53.8566 17.4287 54.2636 17.7014 54.6182 18.0651C54.9727 18.4157 55.2485 18.8314 55.4455 19.2989C55.6424 19.7665 55.7475 20.26 55.7475 20.7925C55.7475 21.312 55.6556 21.8186 55.4455 22.2861ZM107.551 16.4156C106.33 15.2077 104.859 14.6103 103.165 14.6103C101.458 14.6103 99.9876 15.2207 98.7795 16.4156C97.5714 17.6105 96.9673 19.0781 96.9673 20.7925C96.9673 22.5069 97.5714 23.9616 98.7795 25.1694C99.9876 26.3773 101.445 26.9748 103.165 26.9748C104.715 26.9748 106.067 26.4682 107.21 25.4682C107.433 25.2344 107.538 24.9616 107.538 24.6369C107.538 24.2993 107.433 24.0265 107.21 23.8187C106.987 23.6109 106.711 23.494 106.383 23.494C106.094 23.507 105.844 23.5979 105.621 23.7797C105.28 24.0785 104.899 24.2993 104.492 24.4421C104.085 24.585 103.638 24.6629 103.152 24.6629C102.719 24.6629 102.312 24.598 101.918 24.4681C101.524 24.3382 101.156 24.1564 100.828 23.9096C100.5 23.6758 100.211 23.3771 99.9744 23.0524C99.7381 22.7147 99.5411 22.3511 99.4229 21.9355H108.182C108.51 21.9355 108.786 21.8316 109.009 21.6108C109.232 21.39 109.35 21.1172 109.35 20.7925C109.35 19.9353 109.193 19.1431 108.891 18.4157C108.602 17.6754 108.155 17.0001 107.551 16.4156ZM99.436 19.6366C99.5542 19.234 99.7381 18.8573 99.9744 18.5196C100.211 18.182 100.5 17.8962 100.841 17.6624C101.169 17.4287 101.537 17.2338 101.931 17.104C102.325 16.9741 102.745 16.9091 103.152 16.9091C103.572 16.9091 103.98 16.9741 104.373 17.104C104.767 17.2338 105.135 17.4157 105.463 17.6624C105.792 17.8962 106.081 18.1949 106.33 18.5196C106.58 18.8443 106.763 19.221 106.895 19.6366H99.436ZM119.685 15.3766C119.475 15.1818 119.225 15.0259 118.91 14.909C118.595 14.7921 118.254 14.7142 117.886 14.6752C117.518 14.6363 117.164 14.6103 116.835 14.6103C116.1 14.6103 115.404 14.7272 114.761 14.961C114.117 15.1947 113.513 15.5324 112.962 15.974V15.7532C112.962 15.4415 112.843 15.1688 112.62 14.948C112.397 14.7272 112.121 14.6103 111.806 14.6103C111.478 14.6103 111.202 14.7272 110.979 14.948C110.755 15.1688 110.637 15.4415 110.637 15.7532V25.8318C110.637 26.1435 110.755 26.4163 110.979 26.6371C111.202 26.8579 111.478 26.9748 111.806 26.9748C112.121 26.9748 112.397 26.8579 112.62 26.6371C112.843 26.4163 112.962 26.1435 112.962 25.8318V20.7925C112.962 20.26 113.067 19.7535 113.264 19.2729C113.461 18.8054 113.749 18.3898 114.091 18.0391C114.445 17.6884 114.852 17.4157 115.325 17.2079C115.798 17.0001 116.297 16.9091 116.835 16.9091C117.387 16.9091 117.886 17.0001 118.345 17.1819C118.529 17.2598 118.687 17.2988 118.831 17.2988C118.989 17.2988 119.146 17.2728 119.291 17.2079C119.435 17.1429 119.554 17.065 119.659 16.9611C119.764 16.8572 119.842 16.7273 119.908 16.5844C119.974 16.4416 120 16.2987 120 16.1299C120 15.8311 119.895 15.5714 119.685 15.3766ZM69.9558 16.4156C68.7346 15.2077 67.2638 14.6103 65.5699 14.6103C63.8628 14.6103 62.392 15.2207 61.1839 16.4156C59.9758 17.6105 59.3718 19.0781 59.3718 20.7925C59.3718 22.5069 59.9758 23.9616 61.1839 25.1694C62.392 26.3773 63.8496 26.9748 65.5699 26.9748C67.2638 26.9748 68.7214 26.3773 69.9558 25.1694C71.1639 23.9746 71.7679 22.5199 71.7679 20.7925C71.7548 19.9353 71.6104 19.1431 71.3083 18.4157C71.0194 17.6754 70.5598 17.013 69.9558 16.4156ZM69.1548 22.2861C68.9578 22.7537 68.6689 23.1693 68.3275 23.52C67.9729 23.8707 67.5659 24.1564 67.0931 24.3642C66.6204 24.572 66.1214 24.6759 65.583 24.6759C65.0315 24.6759 64.5325 24.572 64.0597 24.3642C63.587 24.1564 63.1799 23.8836 62.8254 23.533C62.4708 23.1823 62.2082 22.7667 61.9981 22.2991C61.8011 21.8316 61.6961 21.325 61.6961 20.7925C61.6961 20.26 61.8011 19.7665 61.9981 19.2859C62.1951 18.8184 62.4708 18.4028 62.8254 18.0521C63.1668 17.7014 63.587 17.4287 64.0597 17.2208C64.5325 17.013 65.0446 16.9091 65.583 16.9091C66.1214 16.9091 66.6335 17.013 67.0931 17.2208C67.5659 17.4287 67.9729 17.7014 68.3275 18.0651C68.682 18.4157 68.9578 18.8314 69.1548 19.2989C69.3517 19.7665 69.4568 20.26 69.4568 20.7925C69.4568 21.312 69.3649 21.8186 69.1548 22.2861ZM95.7198 15.7402C95.7198 15.5844 95.6936 15.4415 95.6279 15.2986C95.5622 15.1558 95.4835 15.0389 95.3784 14.935C95.2734 14.8311 95.1552 14.7402 95.0107 14.6882C94.8663 14.6363 94.7218 14.5973 94.5511 14.5973C94.3279 14.5973 94.1178 14.6492 93.9339 14.7791L87.3157 19.0781V10.4542C87.3157 10.1295 87.1975 9.85671 86.9742 9.63591C86.751 9.41512 86.4752 9.29823 86.1601 9.29823C85.8318 9.29823 85.556 9.41512 85.3328 9.63591C85.1096 9.85671 84.9914 10.1295 84.9914 10.4542V25.8188C84.9914 26.1306 85.1096 26.4033 85.3328 26.6371C85.556 26.8709 85.8318 26.9748 86.1601 26.9748C86.4752 26.9748 86.751 26.8579 86.9742 26.6371C87.1975 26.4163 87.3157 26.1306 87.3157 25.8188V21.8316L88.6682 20.9484L93.7764 26.689C93.9865 26.8839 94.236 26.9878 94.5511 26.9878C94.7087 26.9878 94.8663 26.9618 95.0107 26.8968C95.1552 26.8449 95.2734 26.754 95.3784 26.6501C95.4835 26.5462 95.5622 26.4163 95.6279 26.2734C95.6936 26.1306 95.7198 25.9877 95.7198 25.8318C95.7198 25.5331 95.6148 25.2604 95.4047 25.0266L90.6511 19.6756L95.2865 16.6754C95.5754 16.4676 95.7198 16.1558 95.7198 15.7402ZM76.5084 18.0391C76.863 17.6884 77.2701 17.4157 77.7428 17.2079C78.2155 17.0001 78.7145 16.9091 79.2529 16.9091C79.7388 16.9091 80.1852 16.9871 80.6054 17.1559C81.0257 17.3248 81.4196 17.5585 81.7873 17.8702C82.0105 18.0521 82.26 18.13 82.5358 18.13C82.8641 18.13 83.1398 18.0131 83.3631 17.7923C83.5863 17.5715 83.6914 17.2988 83.6914 16.9611C83.6914 16.6104 83.56 16.3247 83.2974 16.0909C82.155 15.0908 80.8156 14.5843 79.2529 14.5843C77.5458 14.5843 76.0751 15.1947 74.867 16.4026C73.6589 17.6105 73.0548 19.0651 73.0548 20.7795C73.0548 22.4939 73.6589 23.9486 74.867 25.1565C76.0751 26.3643 77.5327 26.9618 79.2529 26.9618C80.8024 26.9618 82.1418 26.4552 83.2974 25.4552C83.5338 25.2084 83.6651 24.9227 83.6651 24.598C83.6651 24.2603 83.56 23.9876 83.3368 23.7797C83.1136 23.5719 82.8378 23.455 82.5095 23.455C82.2338 23.468 81.9843 23.546 81.7742 23.7018C81.4065 24.0135 81.0125 24.2603 80.6054 24.4162C80.1852 24.572 79.7388 24.6499 79.2529 24.6499C78.7145 24.6499 78.2024 24.546 77.7428 24.3512C77.2701 24.1434 76.863 23.8707 76.5084 23.52C76.1539 23.1693 75.8781 22.7537 75.668 22.2861C75.4579 21.8186 75.366 21.312 75.366 20.7665C75.366 20.2211 75.471 19.7275 75.668 19.247C75.8781 18.8054 76.1539 18.3898 76.5084 18.0391Z" fill="white"/>
</svg>
