<svg width="120" height="42" viewBox="0 0 120 42" fill="none" xmlns="http://www.w3.org/2000/svg">
    <g clip-path="url(#clip0_34_546)">
        <path d="M13.5714 20.9446C13.5714 19.145 14.2863 17.419 15.5589 16.1464C16.8315 14.8739 18.5574 14.1589 20.3571 14.1589C22.1568 14.1589 23.8828 14.8739 25.1554 16.1464C26.4279 17.419 27.1428 19.145 27.1428 20.9446C27.1428 22.7443 26.4279 24.4703 25.1554 25.7429C23.8828 27.0154 22.1568 27.7304 20.3571 27.7304C18.5574 27.7304 16.8315 27.0154 15.5589 25.7429C14.2863 24.4703 13.5714 22.7443 13.5714 20.9446Z" fill="#1ABCFE"/>
        <path d="M0 34.5159C0 32.7163 0.714922 30.9903 1.98749 29.7177C3.26006 28.4451 4.98603 27.7302 6.78572 27.7302H13.5714V34.5159C13.5714 36.3156 12.8565 38.0416 11.5839 39.3142C10.3114 40.5867 8.5854 41.3016 6.78572 41.3016C4.98603 41.3016 3.26006 40.5867 1.98749 39.3142C0.714922 38.0416 0 36.3156 0 34.5159Z" fill="#0ACF83"/>
        <path d="M13.5714 0.587402V14.1588H20.3571C22.1568 14.1588 23.8828 13.4439 25.1554 12.1713C26.4279 10.8988 27.1428 9.17279 27.1428 7.37311C27.1428 5.57343 26.4279 3.84746 25.1554 2.57489C23.8828 1.30232 22.1568 0.587402 20.3571 0.587402L13.5714 0.587402Z" fill="#FF7262"/>
        <path d="M0 7.37311C0 9.17279 0.714922 10.8988 1.98749 12.1713C3.26006 13.4439 4.98603 14.1588 6.78572 14.1588H13.5714V0.587402H6.78572C4.98603 0.587402 3.26006 1.30232 1.98749 2.57489C0.714922 3.84746 0 5.57343 0 7.37311Z" fill="#F24E1E"/>
        <path d="M0 20.9446C0 22.7443 0.714922 24.4703 1.98749 25.7429C3.26006 27.0154 4.98603 27.7304 6.78572 27.7304H13.5714V14.1589H6.78572C4.98603 14.1589 3.26006 14.8739 1.98749 16.1464C0.714922 17.419 0 19.145 0 20.9446Z" fill="#A259FF"/>
    </g>
    <g clip-path="url(#clip1_34_546)">
        <path d="M39.8605 6.30176V29.5633L42.7352 29.5748V18.4979H49.6457V15.5671H42.7242V9.22099H51.7354V6.30176H39.8605ZM56.8879 11.0325C57.3864 11.0325 57.8645 10.8259 58.217 10.458C58.5695 10.0901 58.7675 9.59122 58.7675 9.07099C58.7675 8.55076 58.5695 8.05183 58.217 7.68397C57.8645 7.31611 57.3864 7.10945 56.8879 7.10945C56.3893 7.10945 55.9112 7.31611 55.5587 7.68397C55.2062 8.05183 55.0082 8.55076 55.0082 9.07099C55.0082 9.59122 55.2062 10.0901 55.5587 10.458C55.9112 10.8259 56.3893 11.0325 56.8879 11.0325ZM55.4394 13.9518V29.5748H58.3142V13.9518H55.4394Z" fill="white"/>
        <path fill-rule="evenodd" clip-rule="evenodd" d="M68.9397 13.5017C65.1362 13.5017 62.4825 16.8594 62.4825 20.8517C62.4825 24.844 65.1362 28.2017 68.9397 28.2017C70.6867 28.2017 72.124 27.5094 73.1744 26.3556V28.4325C73.1817 29.0531 73.0711 29.669 72.8489 30.2447C72.6267 30.8204 72.2974 31.3444 71.88 31.7864C71.4625 32.2285 70.9653 32.5798 70.417 32.8201C69.8686 33.0604 69.2801 33.1848 68.6854 33.1863C67.7677 33.1863 66.861 32.8171 66.1423 32.2863L64.705 34.8825C65.8164 35.6322 67.1011 36.055 68.4237 36.1062C69.7462 36.1575 71.0574 35.8353 72.2191 35.1736C73.3808 34.5119 74.3497 33.5353 75.0239 32.3468C75.698 31.1584 76.0522 29.802 76.0492 28.4209V13.9632H73.1744V15.3594C72.124 14.2056 70.6867 13.5132 68.9397 13.5132V13.5017ZM65.3462 20.8517C65.3462 18.3709 67.1595 16.4209 69.2603 16.4209C71.3611 16.4209 73.1634 18.3825 73.1634 20.8517C73.1634 23.3325 71.3501 25.2709 69.2603 25.2709C67.1595 25.2709 65.3462 23.3325 65.3462 20.8517Z" fill="white"/>
        <path d="M86.3763 16.4211C85.5541 16.4362 84.7707 16.7885 84.1955 17.4018C83.6202 18.015 83.2995 18.8399 83.3025 19.698V29.5749H80.4277V13.9519H83.3025V15.3826C83.7326 14.7878 84.2913 14.3073 84.933 13.9805C85.5748 13.6537 86.2814 13.4897 86.9954 13.5019C89.0078 13.5019 90.5557 14.5403 91.4403 16.1326C91.9337 15.3344 92.6091 14.6763 93.406 14.2172C94.2029 13.7581 95.0965 13.5123 96.0067 13.5019C99.2684 13.5019 101.314 16.248 101.314 19.6519V29.5749H98.4613V19.6865C98.4643 18.8283 98.1435 18.0035 97.5683 17.3902C96.9931 16.777 96.2097 16.4247 95.3875 16.4095C94.5653 16.4247 93.7819 16.777 93.2067 17.3902C92.6315 18.0035 92.3107 18.8283 92.3137 19.6865V29.5634H89.439V19.6865C89.4421 18.8303 89.1228 18.0071 88.55 17.3942C87.9771 16.7813 87.1965 16.4277 86.3763 16.4095V16.4211Z" fill="white"/>
        <path fill-rule="evenodd" clip-rule="evenodd" d="M116.605 15.7286C115.953 15.0182 115.168 14.4543 114.299 14.0714C113.43 13.6885 112.496 13.4946 111.552 13.5016C107.285 13.5016 104.255 17.2632 104.255 21.7632C104.255 26.2632 107.285 30.0247 111.552 30.0247C112.495 30.0297 113.429 29.8349 114.298 29.4521C115.166 29.0693 115.951 28.5065 116.605 27.7978V29.5747H119.469V13.9516H116.594V15.7286H116.605ZM107.119 21.7632C107.119 18.7863 109.308 16.4209 111.862 16.4209C114.405 16.4209 116.605 18.7863 116.605 21.7632C116.605 24.7401 114.416 27.094 111.862 27.094C109.319 27.094 107.119 24.7401 107.119 21.7632Z" fill="white"/>
    </g>
    <defs>
        <clipPath id="clip0_34_546">
            <rect width="27.1429" height="40.7143" fill="white" transform="translate(0 0.587402)"/>
        </clipPath>
        <clipPath id="clip1_34_546">
            <rect width="80.7143" height="30" fill="white" transform="translate(39.2855 6.30176)"/>
        </clipPath>
    </defs>
</svg>
