<svg width="118" height="30" viewBox="0 0 118 30" fill="none" xmlns="http://www.w3.org/2000/svg">
    <mask id="mask0_233_60" style="mask-type:luminance" maskUnits="userSpaceOnUse" x="0" y="0" width="21" height="29">
        <path d="M17.5096 6.99488C17.4827 6.83195 17.3919 6.68616 17.257 6.58928C17.1222 6.4924 16.9541 6.45227 16.7896 6.47764C16.6603 6.49467 16.5406 6.55488 16.4505 6.64833L13.1948 9.87075L10.6487 5.05006C10.6107 4.97767 10.5587 4.91342 10.4957 4.86098C10.4326 4.80853 10.3598 4.76893 10.2813 4.74443C10.2028 4.71993 10.1202 4.71101 10.0382 4.71819C9.9562 4.72537 9.87645 4.7485 9.8035 4.78626C9.69293 4.84945 9.60115 4.94045 9.53741 5.05006L8.14958 7.68799L4.64871 1.21213C4.60946 1.14101 4.55642 1.07828 4.49264 1.02754C4.42886 0.976802 4.35559 0.939055 4.27706 0.916466C4.19852 0.893877 4.11626 0.886892 4.03499 0.895911C3.95372 0.90493 3.87505 0.929777 3.8035 0.969023C3.71856 1.01397 3.64491 1.0773 3.58801 1.1543C3.53111 1.2313 3.49242 1.32001 3.4748 1.41385L0.0834961 22.8897L9.13567 27.9483C9.41474 28.1 9.72785 28.1795 10.0461 28.1795C10.3644 28.1795 10.6775 28.1 10.9565 27.9483L20.087 22.9104L17.5096 6.99488Z" fill="white"/>
    </mask>
    <g mask="url(#mask0_233_60)">
        <path d="M0.0834961 22.8899L3.4748 1.41403C3.5005 1.25528 3.58834 1.113 3.71924 1.01809C3.85015 0.923174 4.01354 0.883303 4.17393 0.907135C4.26867 0.924359 4.35843 0.962011 4.43687 1.01743C4.5153 1.07284 4.5805 1.14467 4.62784 1.22783L8.12871 7.70886L9.51654 5.07093C9.55452 4.99854 9.60652 4.93429 9.66957 4.88185C9.73262 4.8294 9.80548 4.7898 9.88398 4.7653C9.96248 4.7408 10.0451 4.73188 10.1271 4.73906C10.2091 4.74624 10.2888 4.76937 10.3618 4.80714C10.4723 4.87032 10.5641 4.96132 10.6278 5.07093L20.0713 22.8899H0.0834961Z" fill="#FFA000"/>
        <path opacity="0.12" d="M11.6505 1.05187L-4.91992 -0.349854V29.4019L0.0835567 22.8898L11.6505 1.05187Z" fill="url(#paint0_linear_233_60)"/>
        <path d="M11.7913 14.5261L8.13915 7.69336L0.0834961 22.8899L11.7913 14.5261Z" fill="#F57C00"/>
        <path opacity="0.2" d="M-4.91992 -0.349854H25.0905V29.4019H-4.91992V-0.349854Z" fill="url(#paint1_linear_233_60)"/>
        <path d="M20.0922 22.8899L17.4835 6.97951C17.4566 6.81657 17.3658 6.67079 17.2309 6.57391C17.0961 6.47703 16.9281 6.4369 16.7635 6.46227C16.6345 6.48046 16.5153 6.54048 16.4244 6.63296L0.0834961 22.8899L9.13567 27.9485C9.41474 28.1001 9.72785 28.1796 10.0461 28.1796C10.3644 28.1796 10.6775 28.1001 10.9565 27.9485L20.0922 22.8899Z" fill="#FFCA28"/>
        <path d="M17.5096 6.99488C17.4827 6.83195 17.3919 6.68616 17.257 6.58928C17.1222 6.4924 16.9542 6.45227 16.7896 6.47764C16.6603 6.49467 16.5406 6.55488 16.4505 6.64833L13.1948 9.87075L10.6487 5.05006C10.6107 4.97767 10.5587 4.91342 10.4957 4.86098C10.4326 4.80853 10.3598 4.76893 10.2813 4.74443C10.2028 4.71993 10.1202 4.71101 10.0382 4.71819C9.9562 4.72537 9.87645 4.7485 9.8035 4.78626C9.69293 4.84945 9.60115 4.94045 9.53741 5.05006L8.14958 7.68799L4.64871 1.21213C4.60946 1.14101 4.55642 1.07828 4.49264 1.02754C4.42886 0.976802 4.35559 0.939055 4.27706 0.916466C4.19852 0.893877 4.11626 0.886892 4.03499 0.895911C3.95372 0.90493 3.87505 0.929777 3.8035 0.969023C3.71856 1.01397 3.64491 1.0773 3.58801 1.1543C3.53111 1.2313 3.49242 1.32001 3.4748 1.41385L0.0834961 22.8897L0.177409 22.9363L13.2209 10.0052L16.4765 6.78282C16.534 6.72368 16.6029 6.67664 16.6791 6.64451C16.7553 6.61238 16.8372 6.59582 16.92 6.59582C17.0028 6.59582 17.0848 6.61238 17.161 6.64451C17.2372 6.67664 17.3061 6.72368 17.3635 6.78282C17.4599 6.87277 17.5209 6.99376 17.5357 7.1242L20.1026 22.8794H20.1339L17.5096 6.99488ZM0.1148 22.8587L3.4748 1.56902C3.48563 1.48919 3.51243 1.41231 3.55363 1.34289C3.59482 1.27346 3.64958 1.21288 3.71469 1.16471C3.77981 1.11653 3.85397 1.08173 3.93283 1.06234C4.01169 1.04295 4.09366 1.03936 4.17393 1.05178C4.26904 1.06796 4.35925 1.1052 4.43784 1.16072C4.51643 1.21624 4.58138 1.28862 4.62784 1.37247L8.12871 7.85351L9.51654 5.21557C9.55399 5.1427 9.60571 5.07795 9.66869 5.02512C9.73166 4.97229 9.80463 4.93243 9.88332 4.90787C9.96201 4.88331 10.0449 4.87454 10.127 4.88208C10.2091 4.88962 10.289 4.91332 10.3618 4.95178C10.4723 5.01497 10.5641 5.10597 10.6278 5.21557L13.127 9.92764L0.1148 22.8587Z" fill="white" fill-opacity="0.2"/>
        <path opacity="0.2" d="M10.9566 27.7725C10.6769 27.9251 10.3628 28.0051 10.0436 28.0051C9.72433 28.0051 9.41026 27.9251 9.13055 27.7725L0.0992432 22.7759V22.9156L9.13577 27.9483C9.41483 28.1 9.72795 28.1795 10.0462 28.1795C10.3644 28.1795 10.6776 28.1 10.9566 27.9483L20.0871 22.9104V22.7708L10.9566 27.7725Z" fill="#A52714"/>
        <path d="M17.5096 6.99488C17.4827 6.83195 17.3919 6.68616 17.257 6.58928C17.1222 6.4924 16.9541 6.45227 16.7896 6.47764C16.6603 6.49467 16.5406 6.55488 16.4505 6.64833L13.1948 9.87075L10.6487 5.05006C10.6107 4.97767 10.5587 4.91342 10.4957 4.86098C10.4326 4.80853 10.3598 4.76893 10.2813 4.74443C10.2028 4.71993 10.1202 4.71101 10.0382 4.71819C9.9562 4.72537 9.87645 4.7485 9.8035 4.78626C9.69293 4.84945 9.60115 4.94045 9.53741 5.05006L8.14958 7.68799L4.64871 1.21213C4.60946 1.14101 4.55642 1.07828 4.49264 1.02754C4.42886 0.976802 4.35559 0.939055 4.27706 0.916466C4.19852 0.893877 4.11626 0.886892 4.03499 0.895911C3.95372 0.90493 3.87505 0.929777 3.8035 0.969023C3.71856 1.01397 3.64491 1.0773 3.58801 1.1543C3.53111 1.2313 3.49242 1.32001 3.4748 1.41385L0.0834961 22.8897L9.13567 27.9483C9.41474 28.1 9.72785 28.1795 10.0461 28.1795C10.3644 28.1795 10.6775 28.1 10.9565 27.9483L20.087 22.9104L17.5096 6.99488Z" fill="url(#paint2_linear_233_60)"/>
    </g>
    <path d="M39.3496 22.7757H37.1896V6.17743H46.9826V8.2464H39.3496V13.6878H46.247V15.6843H39.3652V22.7757H39.3496ZM50.6974 8.55157C50.4456 8.813 50.1096 8.97907 49.7475 9.02113C49.3854 9.06319 49.0198 8.9786 48.7139 8.78196C48.4079 8.58531 48.1808 8.28895 48.0718 7.94403C47.9628 7.59911 47.9786 7.22727 48.1166 6.89269C48.2546 6.55811 48.5061 6.28179 48.8276 6.11141C49.1492 5.94103 49.5207 5.8873 49.8779 5.95947C50.2352 6.03165 50.5558 6.22521 50.7845 6.50675C51.0132 6.78829 51.1355 7.14014 51.1304 7.50157C51.1328 7.6995 51.0958 7.89595 51.0215 8.07967C50.9472 8.2634 50.8371 8.43079 50.6974 8.57226V8.55157ZM50.6974 22.7757H48.5217V11.3964H50.6817L50.6974 22.7757ZM55.2 22.7757H53.04V11.3964H55.127V13.2481H55.2209C55.4677 12.5923 55.951 12.0505 56.5774 11.7274C57.1666 11.3514 57.849 11.1438 58.5496 11.1274C59.0996 11.1109 59.6475 11.2023 60.1617 11.3964L59.3374 13.393C58.9662 13.2701 58.5754 13.2158 58.1844 13.2326C57.7901 13.2308 57.3999 13.3125 57.04 13.4721C56.6801 13.6318 56.3588 13.8658 56.0974 14.1585C55.7916 14.4795 55.5545 14.8585 55.4003 15.2727C55.246 15.6869 55.1779 16.1278 55.2 16.5688V22.7757ZM65.3426 23.1585C64.5543 23.1868 63.7689 23.0479 63.0391 22.7508C62.3094 22.4537 61.6521 22.0055 61.1113 21.4361C60.0191 20.263 59.4329 18.7129 59.4783 17.1171C59.4489 15.5469 60.0064 14.0215 61.0435 12.8343C61.5393 12.2546 62.1599 11.7924 62.8597 11.4818C63.5594 11.1711 64.3205 11.02 65.087 11.0395C65.847 11.0053 66.6054 11.1351 67.3099 11.42C68.0143 11.7049 68.648 12.138 69.167 12.6895C70.2447 13.9041 70.8057 15.4855 70.7322 17.1016V17.4998H61.6435C61.6547 18.5212 62.0685 19.4977 62.7965 20.2205C63.1238 20.5427 63.5122 20.7973 63.9394 20.9696C64.3666 21.1418 64.8241 21.2283 65.2852 21.224C66.8504 21.224 67.8939 20.5723 68.4157 19.2636L70.3357 20.0602C69.9552 20.9532 69.3207 21.7171 68.5096 22.2585C67.577 22.8861 66.4694 23.2081 65.3426 23.1792V23.1585ZM68.4365 15.7154C68.3603 15.0159 68.0434 14.3639 67.5391 13.8688C67.2128 13.557 66.824 13.3167 66.398 13.1635C65.9719 13.0102 65.5182 12.9474 65.0661 12.9792C64.3013 12.9617 63.5573 13.2272 62.9791 13.724C62.3725 14.2434 61.9485 14.9409 61.7687 15.7154H68.4365ZM78.3026 23.1585C77.4789 23.1759 76.6647 22.9816 75.9391 22.5947C75.2973 22.2815 74.7555 21.7981 74.3739 21.1981H74.28V22.7498H72.1931V6.17743H74.3531V11.3964L74.2591 12.9792H74.3531C74.7391 12.383 75.2797 11.9006 75.9183 11.5826C76.6465 11.2027 77.4589 11.0089 78.2817 11.0188C79.0108 11.017 79.7317 11.1719 80.3946 11.4728C81.0575 11.7738 81.6467 12.2136 82.1217 12.7619C83.2163 13.9357 83.8026 15.4883 83.7548 17.0861C83.8047 18.6788 83.2263 20.2281 82.1426 21.405C81.6722 21.9609 81.0846 22.4079 80.4211 22.7144C79.7577 23.0209 79.0346 23.1796 78.3026 23.1792V23.1585ZM77.9322 21.224C78.4185 21.2272 78.9001 21.1284 79.3451 20.9341C79.7902 20.7397 80.1889 20.4543 80.5148 20.0964C81.2576 19.2858 81.646 18.2163 81.5948 17.1223C81.646 16.0283 81.2576 14.9587 80.5148 14.1481C80.1889 13.7903 79.7902 13.5048 79.3451 13.3105C78.9001 13.1161 78.4185 13.0173 77.9322 13.0205C77.4477 13.0115 76.9669 13.1056 76.5223 13.2965C76.0776 13.4875 75.6795 13.7708 75.3548 14.1274C74.6288 14.954 74.2547 16.0277 74.3113 17.1223C74.2783 17.6649 74.3534 18.2087 74.5325 18.7226C74.7115 19.2365 74.9909 19.7103 75.3548 20.1171C75.6803 20.4726 76.0786 20.7552 76.5231 20.9461C76.9675 21.137 77.4479 21.2317 77.9322 21.224ZM89.1183 23.1843C88.0048 23.2288 86.9146 22.8599 86.0609 22.1498C85.658 21.8134 85.338 21.3901 85.1255 20.9123C84.913 20.4344 84.8136 19.9147 84.8348 19.3929C84.8131 18.8253 84.9338 18.2613 85.186 17.7512C85.4383 17.2412 85.8141 16.8012 86.28 16.4705C87.3307 15.7468 88.5913 15.3835 89.8696 15.4361C90.9556 15.3921 92.0345 15.6292 93 16.124V15.7981C93.0134 15.4208 92.9432 15.0451 92.7945 14.6975C92.6458 14.3499 92.4221 14.0388 92.1391 13.7861C91.5553 13.2723 90.7959 12.9986 90.0157 13.0205C89.4199 13.0138 88.8331 13.1637 88.3148 13.455C87.8269 13.7179 87.455 14.1511 87.2713 14.6705L85.2939 13.8378C85.6262 13.0751 86.1687 12.4207 86.8591 11.9498C87.7674 11.3337 88.8538 11.0286 89.9531 11.0809C91.288 11.032 92.5924 11.4846 93.6052 12.3481C94.1022 12.8076 94.4901 13.3707 94.7409 13.9969C94.9917 14.623 95.0992 15.2965 95.0557 15.9688V22.7757H92.9687V21.224H92.8696C92.4733 21.8485 91.9177 22.3581 91.259 22.7015C90.6003 23.0448 89.8618 23.2096 89.1183 23.1792V23.1843ZM89.4678 21.224C90.3706 21.2216 91.2369 20.871 91.8835 20.2464C92.2273 19.9585 92.5034 19.5997 92.6927 19.195C92.8819 18.7902 92.9797 18.3494 92.9791 17.9033C92.1852 17.3546 91.2266 17.0901 90.2609 17.1533C89.4172 17.0896 88.5786 17.3282 87.8974 17.8257C87.6576 18.0108 87.4614 18.2455 87.3227 18.5135C87.1839 18.7816 87.1058 19.0764 87.0939 19.3774C87.0873 19.6424 87.1514 19.9043 87.2796 20.1368C87.4079 20.3693 87.5958 20.5641 87.8244 20.7016C88.3071 21.0349 88.8796 21.2169 89.4678 21.224ZM101.035 23.1843C99.9051 23.2302 98.7917 22.9047 97.8678 22.2585C97.0523 21.6673 96.4184 20.8633 96.0365 19.9361L97.9565 19.155C98.1742 19.7994 98.5973 20.3561 99.1619 20.7414C99.7265 21.1267 100.402 21.3197 101.087 21.2912C101.668 21.3174 102.244 21.1658 102.736 20.8567C102.932 20.7281 103.093 20.5518 103.201 20.3445C103.31 20.1372 103.363 19.9058 103.357 19.6723C103.357 18.9274 102.835 18.4205 101.791 18.1671L99.4591 17.6033C98.6983 17.4067 97.9873 17.0543 97.3722 16.5688C97.0512 16.3206 96.7944 16.0002 96.623 15.6342C96.4515 15.2681 96.3703 14.8669 96.3861 14.4636C96.3854 13.976 96.5089 13.4962 96.7451 13.0685C96.9813 12.6408 97.3227 12.2792 97.7374 12.0171C98.6072 11.4456 99.6177 11.12 100.66 11.0754C101.703 11.0307 102.738 11.2687 103.654 11.7636C104.439 12.194 105.043 12.8896 105.355 13.724L103.487 14.4843C103.064 13.4861 102.188 12.9792 100.878 12.9792C100.315 12.9566 99.7575 13.0949 99.2713 13.3774C99.0742 13.4766 98.9083 13.6273 98.7915 13.8133C98.6747 13.9994 98.6115 14.2135 98.6087 14.4326C98.6087 15.0843 99.1304 15.5188 100.127 15.7567L102.397 16.274C103.31 16.4385 104.149 16.8815 104.797 17.5412C105.299 18.1146 105.572 18.8507 105.563 19.6102C105.568 20.104 105.456 20.592 105.236 21.0355C105.017 21.479 104.697 21.8659 104.301 22.1654C103.371 22.8816 102.211 23.2415 101.035 23.1792V23.1843ZM112.294 23.1843C111.506 23.2127 110.72 23.0737 109.99 22.7767C109.261 22.4796 108.603 22.0313 108.063 21.4619C106.966 20.2816 106.381 18.721 106.435 17.1171C106.405 15.5469 106.963 14.0215 108 12.8343C108.496 12.2546 109.116 11.7924 109.816 11.4818C110.516 11.1711 111.277 11.02 112.043 11.0395C112.804 11.0053 113.562 11.1351 114.266 11.42C114.971 11.7049 115.604 12.138 116.123 12.6895C117.192 13.9026 117.747 15.4774 117.673 17.0861V17.4843H108.595C108.606 18.5057 109.02 19.4822 109.748 20.205C110.074 20.53 110.462 20.7875 110.889 20.9624C111.316 21.1373 111.774 21.2262 112.237 21.224C113.776 21.224 114.845 20.5723 115.367 19.2636L117.292 20.0602C116.91 20.9552 116.271 21.7195 115.456 22.2585C114.525 22.8867 113.419 23.2088 112.294 23.1792V23.1843ZM115.383 15.7412C115.311 15.0416 114.995 14.3887 114.49 13.8947C114.164 13.5829 113.775 13.3426 113.349 13.1893C112.923 13.0361 112.469 12.9733 112.017 13.005C111.253 12.9925 110.511 13.2574 109.93 13.7498C109.327 14.2712 108.905 14.9681 108.725 15.7412H115.383Z" fill="#DDDDDD"/>
    <defs>
        <linearGradient id="paint0_linear_233_60" x1="3.98095" y1="15.5398" x2="2.73865" y2="14.8844" gradientUnits="userSpaceOnUse">
            <stop stop-color="#A52714"/>
            <stop offset="0.4" stop-color="#A52714" stop-opacity="0.5"/>
            <stop offset="0.8" stop-color="#A52714" stop-opacity="0"/>
        </linearGradient>
        <linearGradient id="paint1_linear_233_60" x1="9.29225" y1="13.7346" x2="8.73882" y2="13.1764" gradientUnits="userSpaceOnUse">
            <stop stop-color="#A52714" stop-opacity="0.8"/>
            <stop offset="0.5" stop-color="#A52714" stop-opacity="0.21"/>
            <stop offset="1" stop-color="#A52714" stop-opacity="0"/>
        </linearGradient>
        <linearGradient id="paint2_linear_233_60" x1="-0.449617" y1="5.68932" x2="20.2512" y2="26.5841" gradientUnits="userSpaceOnUse">
            <stop stop-color="white" stop-opacity="0.1"/>
            <stop offset="1" stop-color="white" stop-opacity="0"/>
        </linearGradient>
    </defs>
</svg>
