<svg width="75" height="32" viewBox="0 0 75 32" fill="none" xmlns="http://www.w3.org/2000/svg">
    <path d="M44.8188 10.6577C43.1801 10.6577 41.9588 11.4618 41.9588 13.3954C41.9588 14.8521 42.7626 15.8643 44.7304 15.8643C46.3985 15.8643 47.5318 14.8842 47.5318 13.3352C47.5318 11.5804 46.5177 10.6577 44.8188 10.6577ZM41.5413 24.3153C41.1533 24.7905 40.7667 25.2964 40.7667 25.8919C40.7667 27.0816 42.2852 27.4385 44.3718 27.4385C46.1016 27.4385 48.4561 27.3182 48.4561 25.7145C48.4561 24.7597 47.3232 24.7009 45.8917 24.6113L41.5413 24.3153ZM50.3636 10.7473C50.8989 11.4324 51.4664 12.3845 51.4664 13.7533C51.4664 17.0544 48.8736 18.9893 45.1184 18.9893C44.1633 18.9893 43.2992 18.8704 42.7626 18.721L41.7797 20.298L44.6996 20.4758C49.8568 20.804 52.8962 20.9537 52.8962 24.9091C52.8962 28.3305 49.8862 30.2644 44.6996 30.2644C39.3057 30.2644 37.2485 28.8956 37.2485 26.5449C37.2485 25.2058 37.8451 24.4937 38.8886 23.5098C37.904 23.0958 37.5776 22.3519 37.5776 21.5479C37.5776 20.8935 37.904 20.298 38.4417 19.7319C38.978 19.1671 39.5735 18.602 40.2893 17.9477C38.8297 17.2332 37.7259 15.6855 37.7259 13.4836C37.7259 10.0622 39.9907 7.71289 44.5513 7.71289C45.8328 7.71289 46.6075 7.83049 47.2938 8.011H53.1061V10.5388L50.364 10.7473" fill="white"/>
    <mask id="mask0_233_65" style="mask-type:luminance" maskUnits="userSpaceOnUse" x="54" y="0" width="10" height="24">
        <path d="M54.4519 0.0441895H63.0136V23.3629H54.4519V0.0441895Z" fill="white"/>
    </mask>
    <g mask="url(#mask0_233_65)">
        <path d="M58.3488 5.34013C56.6498 5.34013 55.6666 4.35898 55.6666 2.66127C55.6666 0.966641 56.6498 0.0439453 58.3488 0.0439453C60.0782 0.0439453 61.0618 0.966983 61.0618 2.66127C61.0618 4.35863 60.0786 5.34013 58.3488 5.34013ZM54.5039 23.2214V20.8708L56.0238 20.6636C56.4412 20.6038 56.5012 20.5142 56.5012 20.0667V11.32C56.5012 10.9943 56.4118 10.7847 56.1135 10.6965L54.5039 10.1304L54.8316 7.72123H61.0015V20.0674C61.0015 20.5456 61.031 20.6041 61.4792 20.6643L62.9988 20.8714V23.2218L54.5039 23.2214Z" fill="white"/>
    </g>
    <mask id="mask1_233_65" style="mask-type:luminance" maskUnits="userSpaceOnUse" x="62" y="2" width="13" height="22">
        <path d="M62.6711 2.85107H74.7845V23.363H62.6711V2.85107Z" fill="white"/>
    </mask>
    <g mask="url(#mask1_233_65)">
        <path d="M74.7846 22.0675C73.503 22.6914 71.626 23.2575 69.926 23.2575C66.3794 23.2575 65.039 21.8302 65.039 18.4662V10.6727C65.039 10.4936 65.039 10.375 64.7993 10.375H62.7126V7.72686C65.3373 7.42909 66.3794 6.11906 66.7072 2.87646H69.5393V7.10193C69.5393 7.31012 69.5394 7.39935 69.7774 7.39935H73.9794V10.375H69.5393V17.4847C69.5393 19.2406 69.9565 19.9243 71.5661 19.9243C72.4007 19.9243 73.2647 19.7161 73.9794 19.4491L74.7846 22.0675Z" fill="white"/>
    </g>
    <mask id="mask2_233_65" style="mask-type:luminance" maskUnits="userSpaceOnUse" x="0" y="0" width="32" height="32">
        <path d="M0 0.0441895H31.5069V31.2258H0V0.0441895Z" fill="white"/>
    </mask>
    <g mask="url(#mask2_233_65)">
        <path d="M30.6241 14.2594L16.9963 0.656893C16.8097 0.470542 16.5881 0.322715 16.3443 0.221859C16.1004 0.121003 15.839 0.0690918 15.5751 0.0690918C15.3111 0.0690918 15.0498 0.121003 14.8059 0.221859C14.562 0.322715 14.3405 0.470542 14.1538 0.656893L11.3241 3.48139L14.9131 7.0655C15.335 6.92191 15.7888 6.89923 16.223 7.00002C16.6572 7.10081 17.0544 7.32104 17.3696 7.63573C17.6863 7.95243 17.9074 8.35164 18.0077 8.78778C18.108 9.22393 18.0834 9.67943 17.9367 10.1023L21.3963 13.5568C21.8198 13.4099 22.2763 13.385 22.7132 13.4852C23.1502 13.5854 23.5501 13.8066 23.8669 14.1233C24.0892 14.3448 24.2656 14.6079 24.3859 14.8976C24.5063 15.1872 24.5682 15.4977 24.5682 15.8113C24.5682 16.1248 24.5063 16.4353 24.3859 16.725C24.2656 17.0146 24.0892 17.2777 23.8669 17.4992C23.6449 17.7212 23.3812 17.8973 23.0909 18.0175C22.8006 18.1376 22.4895 18.1995 22.1753 18.1995C21.861 18.1995 21.5499 18.1376 21.2596 18.0175C20.9694 17.8973 20.7057 17.7212 20.4837 17.4992C20.1502 17.1659 19.9228 16.7416 19.8303 16.2797C19.7377 15.8178 19.784 15.3388 19.9634 14.9031L16.7367 11.6821V20.1579C16.971 20.2728 17.1847 20.4253 17.3696 20.6092C17.8181 21.0572 18.0701 21.6646 18.0701 22.298C18.0701 22.9314 17.8181 23.5388 17.3696 23.9868C16.4347 24.9187 14.9199 24.9187 13.9878 23.9868C13.7653 23.7652 13.5889 23.5019 13.4685 23.2121C13.3481 22.9224 13.2861 22.6117 13.2861 22.298C13.2861 21.9843 13.3481 21.6736 13.4685 21.3839C13.5889 21.0941 13.7653 20.8308 13.9878 20.6092C14.211 20.385 14.4771 20.2079 14.7703 20.0885V11.5337C14.4771 11.4143 14.211 11.2372 13.9878 11.013C13.652 10.678 13.4236 10.2509 13.3316 9.78604C13.2397 9.32114 13.2883 8.83944 13.4713 8.4022L9.93295 4.86868L0.588762 14.1965C0.402031 14.3828 0.253902 14.604 0.152838 14.8474C0.0517739 15.0909 -0.000244141 15.3518 -0.000244141 15.6154C-0.000244141 15.8789 0.0517739 16.1399 0.152838 16.3833C0.253902 16.6268 0.402031 16.848 0.588762 17.0343L14.2165 30.6381C14.4031 30.8245 14.6247 30.9723 14.8686 31.0732C15.1124 31.174 15.3738 31.226 15.6378 31.226C15.9017 31.226 16.1631 31.174 16.4069 31.0732C16.6508 30.9723 16.8724 30.8245 17.059 30.6381L30.6241 17.0986C31.0012 16.722 31.2131 16.2114 31.2131 15.679C31.2131 15.1465 31.0012 14.6359 30.6241 14.2594Z" fill="white"/>
    </g>
</svg>
