<svg width="55" height="53" viewBox="0 0 55 53" fill="none" xmlns="http://www.w3.org/2000/svg">
    <path d="M54.075 20.9633L53.998 20.7664L46.521 1.2568C46.369 0.874167 46.1 0.549306 45.7527 0.328581C45.4026 0.107632 44.9926 0.000781009 44.5793 0.0227793C44.1659 0.0447776 43.7696 0.194537 43.4449 0.451391C43.1233 0.709258 42.8915 1.0621 42.7823 1.45957L37.7271 16.9306H17.275L12.22 1.45957C12.1108 1.0621 11.8789 0.709258 11.5574 0.451391C11.2341 0.192812 10.838 0.0419244 10.4247 0.0198986C10.0113 -0.00212715 9.60143 0.105817 9.25254 0.328581C8.90358 0.548402 8.63355 0.873462 8.4814 1.2568L0.995757 20.792L0.918644 20.9862C-0.155921 23.7998 -0.288008 26.8861 0.542245 29.7812C1.3725 32.6763 3.12021 35.2236 5.52256 37.04L5.55113 37.0599L5.61682 37.1113L17.0209 45.648L22.6587 49.9179L26.086 52.5139C26.4886 52.8181 26.9795 52.9828 27.4841 52.9828C27.9885 52.9828 28.4794 52.8181 28.8821 52.5139L32.3093 49.9179L37.9499 45.648L49.4198 37.0599L49.4511 37.0371C51.8616 35.2224 53.6163 32.673 54.4504 29.7733C55.2847 26.8738 55.1529 23.7816 54.075 20.9633Z" fill="#E24329"/>
    <path d="M54.0752 20.9633L53.9982 20.7664C50.3515 21.5178 46.9152 23.0633 43.9335 25.293L27.5142 37.7368C33.112 41.9695 37.9844 45.648 37.9844 45.648L49.4542 37.0599L49.4856 37.0371C51.8902 35.2179 53.638 32.6663 54.4659 29.7671C55.2938 26.8677 55.1566 23.778 54.0752 20.9633Z" fill="#FC6D26"/>
    <path d="M17.0298 45.648L22.659 49.9179L26.0862 52.5139C26.4889 52.8182 26.9796 52.9828 27.4843 52.9828C27.9889 52.9828 28.4798 52.8182 28.8823 52.5139L32.3095 49.9179L37.9502 45.648C37.9502 45.648 33.0778 41.9696 27.48 37.7368L17.0298 45.648Z" fill="#FCA326"/>
    <path d="M11.0604 25.3047C8.07943 23.0741 4.64274 21.5294 0.995728 20.7808L0.918615 20.975C-0.15871 23.7899 -0.29225 26.8787 0.538104 29.7762C1.36846 32.6736 3.11774 35.2229 5.52253 37.0401L5.5511 37.0601L5.61679 37.1115L17.0209 45.6481L27.5139 37.7369L11.0604 25.3047Z" fill="#FC6D26"/>
</svg>
