<svg width="55" height="61" viewBox="0 0 55 61" fill="none" xmlns="http://www.w3.org/2000/svg">
    <path fill-rule="evenodd" clip-rule="evenodd" d="M27.5001 7.58045C27.8641 7.58045 28.2159 7.52868 28.5486 7.43214L39.8543 26.9341C39.3475 27.4171 38.9769 28.0407 38.8055 28.7419H16.1926C16.0213 28.0413 15.6512 27.4183 15.1451 26.9355L26.4517 7.43214C26.7843 7.52868 27.1362 7.58045 27.5001 7.58045ZM41.3919 26.0489L30.0861 6.54693C30.126 6.50892 30.165 6.47003 30.2032 6.4303L38.8484 11.4011C38.7514 11.7324 38.6995 12.0828 38.6995 12.4453C38.6995 14.1981 39.915 15.6683 41.5524 16.0652V26.0062C41.4984 26.0193 41.4449 26.0335 41.3919 26.0489ZM23.7593 3.85492C23.7593 4.21739 23.8113 4.56776 23.9082 4.89906L15.2628 9.87002C14.5817 9.16004 13.6216 8.71777 12.5577 8.71777C10.4917 8.71777 8.81689 10.3857 8.81689 12.4433C8.81689 14.1969 10.0334 15.6675 11.6719 16.0637V26.0057C10.0334 26.4019 8.81689 27.8726 8.81689 29.6262C8.81689 31.6837 10.4917 33.3517 12.5577 33.3517C13.6209 33.3517 14.5804 32.91 15.2615 32.2008L23.9082 37.1726C23.8113 37.5039 23.7593 37.8543 23.7593 38.2167C23.7593 40.2743 25.4341 41.9423 27.5001 41.9423C29.5661 41.9423 31.241 40.2743 31.241 38.2167C31.241 37.8543 31.189 37.5039 31.092 37.1726L39.7373 32.2016C40.4183 32.9103 41.3776 33.3517 42.4403 33.3517C44.5063 33.3517 46.1811 31.6837 46.1811 29.6262C46.1811 27.8733 44.9657 26.4033 43.3284 26.0062V16.0652C44.9657 15.6682 46.1811 14.1981 46.1811 12.4453C46.1811 10.3877 44.5063 8.71973 42.4403 8.71973C41.3775 8.71973 40.4182 9.16113 39.7372 9.8699L31.0921 4.89906C31.189 4.56776 31.241 4.21739 31.241 3.85492C31.241 1.79737 29.5661 0.129395 27.5001 0.129395C25.4341 0.129395 23.7593 1.79737 23.7593 3.85492ZM16.1505 11.402L24.797 6.4303C24.8352 6.47003 24.8742 6.50892 24.9141 6.54693L13.608 26.0495C13.5551 26.0341 13.5017 26.0198 13.4478 26.0067V16.0627C15.0841 15.665 16.2986 14.1954 16.2986 12.4433C16.2986 12.0819 16.2469 11.7324 16.1505 11.402ZM38.8484 30.6705C38.833 30.6176 38.8187 30.5644 38.8055 30.5106H16.1925C16.1795 30.564 16.1653 30.6169 16.1499 30.6694L24.797 35.6413C25.4781 34.9326 26.4373 34.4912 27.5001 34.4912C28.5629 34.4912 29.5222 34.9326 30.2032 35.6413L38.8484 30.6705ZM1.2663 56.7408C1.92294 57.4232 2.84604 57.7644 4.03561 57.7644C4.835 57.7644 5.52493 57.6034 6.10546 57.281C6.68598 56.9586 7.1285 56.5087 7.43301 55.9304C7.73753 55.3522 7.88981 54.684 7.88981 53.9259V52.6749C7.88981 52.5708 7.86126 52.4901 7.80416 52.4332C7.74706 52.3763 7.66616 52.3479 7.56149 52.3479H4.50668C4.4115 52.3479 4.33538 52.3809 4.27828 52.4474C4.22118 52.5043 4.19263 52.58 4.19263 52.6749V52.8739C4.19263 52.9688 4.22118 53.0491 4.27828 53.1156C4.33538 53.1725 4.4115 53.2009 4.50668 53.2009H6.99049V53.9259C6.99049 54.9115 6.71927 55.6557 6.17683 56.1579C5.63439 56.6601 4.92065 56.9114 4.03561 56.9114C3.15057 56.9114 2.45111 56.6697 1.93721 56.1863C1.43284 55.703 1.16162 54.9495 1.12355 53.9259C1.11403 53.6416 1.10927 53.2151 1.10927 52.6465C1.10927 52.0778 1.11403 51.6513 1.12355 51.367C1.16162 50.3434 1.43284 49.5899 1.93721 49.1066C2.45111 48.6232 3.15057 48.3815 4.03561 48.3815C4.81598 48.3815 5.43454 48.5521 5.89133 48.8933C6.35766 49.2345 6.6717 49.6564 6.83347 50.1586C6.87155 50.2723 6.90959 50.348 6.94767 50.3861C6.98575 50.4241 7.04759 50.4429 7.13324 50.4429H7.44729C7.53294 50.4429 7.60431 50.4191 7.66141 50.3718C7.71851 50.3246 7.74706 50.2627 7.74706 50.187V50.1586C7.72804 49.8362 7.58051 49.4716 7.30454 49.0639C7.03806 48.6471 6.62888 48.2866 6.07691 47.9835C5.52493 47.6803 4.84453 47.5286 4.03561 47.5286C2.84604 47.5286 1.92294 47.8698 1.2663 48.5521C0.609656 49.2345 0.262302 50.149 0.224236 51.2959C0.214719 51.5802 0.209961 52.0306 0.209961 52.6465C0.209961 53.2624 0.214719 53.7127 0.224236 53.997C0.262302 55.1439 0.609656 56.0584 1.2663 56.7408ZM10.2174 57.622C10.1222 57.622 10.0461 57.5936 9.98897 57.5367C9.93187 57.4798 9.90332 57.4042 9.90332 57.3092V50.5565C9.90332 50.4616 9.93187 50.3859 9.98897 50.329C10.0461 50.2625 10.1222 50.2295 10.2174 50.2295H10.4458C10.5409 50.2295 10.6171 50.2625 10.6742 50.329C10.7408 50.3859 10.7741 50.4616 10.7741 50.5565V51.2104C11.1167 50.5565 11.7638 50.2295 12.7155 50.2295H13.2436C13.3388 50.2295 13.4149 50.2579 13.472 50.3148C13.5291 50.3717 13.5577 50.4473 13.5577 50.5423V50.7413C13.5577 50.8362 13.5291 50.9119 13.472 50.9687C13.4149 51.0256 13.3388 51.054 13.2436 51.054H12.6298C12.0588 51.054 11.6068 51.22 11.2737 51.5516C10.9406 51.8832 10.7741 52.3335 10.7741 52.9022V57.3092C10.7741 57.4042 10.7408 57.4798 10.6742 57.5367C10.6171 57.5936 10.5409 57.622 10.4458 57.622H10.2174ZM15.4827 57.4799C15.8729 57.6693 16.2964 57.7642 16.7532 57.7642C17.4194 57.7642 17.9523 57.6551 18.352 57.4373C18.7612 57.2194 19.0705 56.9539 19.2798 56.6412V57.3093C19.2798 57.4042 19.3084 57.4799 19.3655 57.5368C19.4226 57.5936 19.4987 57.6221 19.5939 57.6221H19.8365C19.9317 57.6221 20.0078 57.5936 20.0649 57.5368C20.122 57.4799 20.1506 57.4042 20.1506 57.3093V52.5753C20.1506 51.8833 19.9365 51.2958 19.5082 50.8124C19.08 50.3291 18.3567 50.0874 17.3385 50.0874C16.7579 50.0874 16.2678 50.1915 15.8682 50.4002C15.4685 50.6088 15.1734 50.8551 14.9831 51.1394C14.7928 51.4141 14.6976 51.6558 14.6976 51.8644C14.6976 51.9497 14.7262 52.0254 14.7833 52.0919C14.8499 52.1488 14.926 52.1772 15.0117 52.1772H15.2115C15.2972 52.1772 15.3638 52.1584 15.4114 52.1203C15.4685 52.0731 15.516 51.9924 15.5541 51.8787C15.6398 51.6132 15.8349 51.3857 16.1394 51.1963C16.4534 51.0069 16.8531 50.912 17.3385 50.912C17.9951 50.912 18.4804 51.0541 18.7945 51.3384C19.1181 51.6132 19.2798 52.0112 19.2798 52.5326V53.0302L17.0244 53.3429C16.1584 53.4567 15.4685 53.7126 14.9546 54.1106C14.4502 54.5087 14.198 55.0205 14.198 55.646C14.198 56.0344 14.3122 56.3899 14.5406 56.7122C14.7785 57.0346 15.0926 57.2905 15.4827 57.4799ZM18.6089 56.2573C18.1617 56.7122 17.5907 56.9397 16.8959 56.9397C16.4106 56.9397 15.9823 56.8214 15.6112 56.5843C15.2496 56.3472 15.0688 56.011 15.0688 55.5749C15.0688 55.1865 15.2686 54.8641 15.6683 54.6082C16.068 54.3523 16.658 54.1721 17.4384 54.068L19.2798 53.8121V54.2954C19.2798 55.1484 19.0562 55.8024 18.6089 56.2573ZM22.7362 60.3232C22.641 60.3232 22.5649 60.2948 22.5078 60.2379C22.4507 60.181 22.4221 60.1053 22.4221 60.0104V50.5423C22.4221 50.4474 22.4507 50.3717 22.5078 50.3149C22.5649 50.258 22.641 50.2296 22.7362 50.2296H22.9788C23.074 50.2296 23.1501 50.258 23.2072 50.3149C23.2643 50.3717 23.2929 50.4474 23.2929 50.5423V51.2105C23.8449 50.4616 24.6442 50.0874 25.691 50.0874C26.7188 50.0874 27.4754 50.4144 27.9607 51.0683C28.4556 51.7127 28.7173 52.5088 28.7459 53.4567C28.7554 53.5516 28.7601 53.708 28.7601 53.9258C28.7601 54.1437 28.7554 54.3 28.7459 54.395C28.7173 55.3429 28.4556 56.1436 27.9607 56.7975C27.4754 57.4419 26.7188 57.7642 25.691 57.7642C24.6538 57.7642 23.8544 57.39 23.2929 56.6412V60.0104C23.2929 60.1053 23.2643 60.181 23.2072 60.2379C23.1501 60.2948 23.074 60.3232 22.9788 60.3232H22.7362ZM25.6054 56.9397C26.3762 56.9397 26.9377 56.698 27.2898 56.2147C27.6515 55.7217 27.8465 55.0916 27.8751 54.3239C27.8846 54.229 27.8894 54.0964 27.8894 53.9258C27.8894 53.0444 27.7181 52.324 27.3755 51.7649C27.0329 51.1963 26.4429 50.912 25.6054 50.912C24.8536 50.912 24.2874 51.1632 23.9067 51.6654C23.5261 52.1584 23.3214 52.7413 23.2929 53.414L23.2786 53.9685L23.2929 54.5229C23.3024 54.9306 23.3928 55.319 23.5641 55.6887C23.7354 56.0487 23.9923 56.3472 24.3349 56.5843C24.6775 56.8214 25.101 56.9397 25.6054 56.9397ZM30.8022 57.5369C30.8593 57.5938 30.9354 57.6222 31.0306 57.6222H31.2733C31.3684 57.6222 31.4446 57.5938 31.5017 57.5369C31.5588 57.48 31.5873 57.4043 31.5873 57.3094V53.3431C31.5873 52.585 31.7919 51.9925 32.2011 51.566C32.6104 51.1299 33.1575 50.9121 33.8427 50.9121C34.5469 50.9121 35.0846 51.1253 35.4558 51.5518C35.8365 51.9783 36.0268 52.5754 36.0268 53.3431V57.3094C36.0268 57.4043 36.0553 57.48 36.1124 57.5369C36.1695 57.5938 36.2456 57.6222 36.3408 57.6222H36.5835C36.6787 57.6222 36.7548 57.5938 36.8119 57.5369C36.869 57.48 36.8975 57.4043 36.8975 57.3094V53.272C36.8975 52.3337 36.6453 51.5706 36.141 50.9831C35.6366 50.3861 34.9181 50.0875 33.9855 50.0875C33.405 50.0875 32.9291 50.1824 32.558 50.3718C32.1964 50.5613 31.8728 50.841 31.5873 51.2106V47.8413C31.5873 47.7464 31.5588 47.6707 31.5017 47.6139C31.4446 47.557 31.3684 47.5286 31.2733 47.5286H31.0306C30.9354 47.5286 30.8593 47.557 30.8022 47.6139C30.7451 47.6707 30.7166 47.7464 30.7166 47.8413V57.3094C30.7166 57.4043 30.7451 57.48 30.8022 57.5369ZM45.788 58.5463C45.6453 58.5463 45.4929 58.4371 45.3312 58.2193L44.7031 57.3521C44.1321 57.6268 43.4658 57.7644 42.7047 57.7644C40.2589 57.7644 39.0027 56.4564 38.9361 53.8406C38.9266 53.5563 38.9219 53.1582 38.9219 52.6465C38.9219 52.1347 38.9266 51.7366 38.9361 51.4523C38.9742 50.1632 39.3263 49.1873 39.9925 48.5237C40.6586 47.8601 41.5627 47.5286 42.7047 47.5286C43.8466 47.5286 44.7506 47.8601 45.4169 48.5237C46.0832 49.1873 46.435 50.1632 46.4732 51.4523C46.4921 52.0209 46.5018 52.419 46.5018 52.6465C46.5018 52.8739 46.4921 53.272 46.4732 53.8406C46.4258 55.1958 46.0781 56.1909 45.4311 56.8261L46.3447 58.1055C46.3733 58.1624 46.3876 58.2147 46.3876 58.2619C46.3876 58.3376 46.359 58.4041 46.3019 58.461C46.2448 58.5178 46.1781 58.5463 46.1021 58.5463H45.788ZM42.7047 56.9114C43.5611 56.9114 44.2417 56.6555 44.746 56.1437C45.2598 55.6223 45.5357 54.8312 45.5739 53.7696C45.5928 53.2009 45.6024 52.8267 45.6024 52.6465C45.6024 52.4662 45.5928 52.092 45.5739 51.5234C45.5357 50.4617 45.2598 49.6752 44.746 49.1634C44.2321 48.642 43.5515 48.3815 42.7047 48.3815C41.8577 48.3815 41.1773 48.642 40.6634 49.1634C40.1495 49.6752 39.8735 50.4617 39.8355 51.5234C39.8259 51.8077 39.8212 52.1819 39.8212 52.6465C39.8212 53.111 39.8259 53.4852 39.8355 53.7696C39.8735 54.8312 40.1447 55.6223 40.6491 56.1437C41.163 56.6555 41.8482 56.9114 42.7047 56.9114ZM48.8588 57.5368C48.9159 57.5937 48.9919 57.6221 49.0872 57.6221H54.5973C54.6922 57.6221 54.7686 57.5937 54.8257 57.5368C54.8921 57.48 54.9256 57.4043 54.9256 57.3094V57.0961C54.9256 56.992 54.8971 56.9113 54.84 56.8544C54.7829 56.7976 54.7019 56.7691 54.5973 56.7691H49.6725V47.9834C49.6725 47.8885 49.644 47.8128 49.5869 47.756C49.5298 47.6991 49.4533 47.6707 49.3585 47.6707H49.0872C48.9919 47.6707 48.9159 47.6991 48.8588 47.756C48.8017 47.8128 48.7732 47.8885 48.7732 47.9834V57.3094C48.7732 57.4043 48.8017 57.48 48.8588 57.5368Z" fill="#E10098"/>
</svg>
