<svg width="55" height="54" viewBox="0 0 55 54" fill="none" xmlns="http://www.w3.org/2000/svg">
    <path d="M9.73958 0H45.2604C50.6458 0 55 4.37559 55 9.78751V44.1014C55 49.5133 50.6458 53.8889 45.2604 53.8889H9.73958C4.35417 53.8889 0 49.5133 0 44.1014V9.78751C0 4.37559 4.35417 0 9.73958 0Z" fill="#330000"/>
    <path d="M26.6521 32.3334H18.1271L16.3854 37.7453C16.3396 37.9526 16.1563 38.0907 15.95 38.0677H11.6417C11.3896 38.0677 11.3209 37.9295 11.3896 37.6532L18.7688 16.3049C18.8375 16.0746 18.9063 15.8213 18.9979 15.5449C19.0896 15.0613 19.1354 14.5546 19.1354 14.048C19.1125 13.9329 19.2042 13.8177 19.3188 13.7947C19.3417 13.7947 19.3646 13.7947 19.3875 13.7947H25.2542C25.4375 13.7947 25.5292 13.8638 25.5521 13.9789L33.9167 37.6992C33.9854 37.9526 33.9167 38.0677 33.6875 38.0677H28.8979C28.7375 38.0907 28.5771 37.9756 28.5313 37.8144L26.6521 32.3334ZM19.4563 27.6584H25.2771C25.1396 27.1748 24.9563 26.599 24.75 26.0003C24.5438 25.3785 24.3375 24.7106 24.1313 24.0197C23.9021 23.3058 23.6959 22.615 23.4667 21.901C23.2375 21.1871 23.0313 20.5193 22.8479 19.8514C22.6646 19.2066 22.5042 18.6078 22.3438 18.0551H22.2979C22.0917 19.0454 21.8396 20.0357 21.5188 21.0259C21.175 22.1313 20.8313 23.2828 20.4646 24.4343C20.1438 25.6088 19.8 26.6912 19.4563 27.6584Z" fill="#FF9A00"/>
    <path d="M38.9125 17.7328C38.1562 17.7558 37.4229 17.4564 36.8729 16.9268C36.3458 16.351 36.0708 15.591 36.0937 14.808C36.0708 14.025 36.3687 13.2881 36.9187 12.7584C37.4687 12.2287 38.2021 11.9524 38.9583 11.9524C39.8521 11.9524 40.5396 12.2287 41.0437 12.7584C41.5479 13.3111 41.8229 14.0481 41.8 14.808C41.8229 15.591 41.5479 16.351 40.9979 16.9268C40.4708 17.4795 39.6916 17.7788 38.9125 17.7328ZM36.3458 37.7223V19.9897C36.3458 19.7594 36.4375 19.6673 36.6437 19.6673H41.1812C41.3875 19.6673 41.4791 19.7824 41.4791 19.9897V37.7223C41.4791 37.9757 41.3875 38.0908 41.1812 38.0908H36.6896C36.4604 38.0908 36.3458 37.9526 36.3458 37.7223Z" fill="#FF9A00"/>
</svg>
