<svg width="55" height="56" viewBox="0 0 55 56" fill="none" xmlns="http://www.w3.org/2000/svg">
    <path fill-rule="evenodd" clip-rule="evenodd" d="M55 0.734619H0V55.7346H55V0.734619ZM32.738 46.1428L36.9465 43.7061C38.0544 45.5154 39.4942 46.8444 42.0415 46.8444C44.1831 46.8444 45.5488 45.7736 45.5488 44.2968C45.5488 42.5247 44.1459 41.897 41.783 40.8636L40.4912 40.3094C36.7621 38.7222 34.2884 36.7286 34.2884 32.5197C34.2884 28.6431 37.2419 25.6895 41.857 25.6895C45.1429 25.6895 47.5057 26.8341 49.2038 29.8246L45.1796 32.4088C44.2934 30.8214 43.3338 30.1939 41.8571 30.1939C40.3434 30.1939 39.3834 31.1537 39.3834 32.4088C39.3834 33.9594 40.3434 34.5872 42.5583 35.5472L43.8504 36.101C48.2438 37.984 50.7175 39.9035 50.7175 44.223C50.7175 48.8751 47.0626 51.4223 42.1524 51.4223C37.3529 51.4223 34.2515 49.1334 32.738 46.1428ZM14.4615 46.6966L14.4616 46.6965C15.68 49.2805 18.08 51.4218 22.2145 51.4218C26.7927 51.4218 29.9307 48.9851 29.9307 43.6317V25.9849H24.7621V43.5587C24.7621 46.1428 23.6913 46.8072 21.9929 46.8072C20.2211 46.8072 19.4825 45.589 18.6705 44.1494L14.4616 46.6965L14.4614 46.6961L14.4615 46.6966Z" fill="#F7DF1E"/>
</svg>
