<svg width="120" height="25" viewBox="0 0 120 25" fill="none" xmlns="http://www.w3.org/2000/svg">
    <path d="M79.7722 0.175537H100.674V3.99746H92.3826V24.1041H88.2365V3.99746H79.7722V0.175537Z" fill="#DDDDDD"/>
    <path d="M45.3966 0.175537V3.99746H28.6423V10.1458H42.1161V13.9677H28.6423V20.2822H45.3966V24.1041H24.4965V3.99746H24.4948V0.175537H45.3966Z" fill="#DDDDDD"/>
    <path d="M55.8334 0.185547H50.4078L69.8411 24.1141H75.2826L65.5647 12.158L75.267 0.203803L69.8411 0.212109L62.8482 8.81593L55.8334 0.185547Z" fill="#DDDDDD"/>
    <path d="M61.401 17.2779L58.6839 13.9312L50.3923 24.1324H55.8334L61.401 17.2779Z" fill="#DDDDDD"/>
    <path fill-rule="evenodd" clip-rule="evenodd" d="M24.6417 24.104L5.18226 0.165527H0V24.094H4.14582V5.28024L19.4335 24.104H24.6417Z" fill="#DDDDDD"/>
    <path d="M101.606 23.9579C101.302 23.9579 101.044 23.8537 100.828 23.6453C100.612 23.4369 100.505 23.1846 100.507 22.8857C100.505 22.595 100.612 22.3455 100.828 22.1371C101.044 21.9287 101.302 21.8245 101.606 21.8245C101.898 21.8245 102.154 21.9287 102.37 22.1371C102.589 22.3455 102.699 22.595 102.702 22.8857C102.699 23.0831 102.648 23.2641 102.547 23.4259C102.443 23.5905 102.311 23.7193 102.145 23.8126C101.982 23.9086 101.803 23.9579 101.606 23.9579Z" fill="#DDDDDD"/>
    <path d="M108.682 13.8774H110.52V20.8893C110.517 21.5337 110.376 22.0849 110.101 22.5484C109.823 23.0118 109.438 23.3655 108.944 23.6151C108.452 23.8618 107.876 23.988 107.222 23.988C106.623 23.988 106.087 23.8811 105.609 23.6727C105.132 23.4643 104.753 23.1516 104.474 22.7403C104.193 22.329 104.056 21.8162 104.056 21.2019H105.896C105.899 21.4707 105.96 21.7037 106.078 21.8984C106.196 22.0931 106.359 22.2412 106.567 22.3454C106.778 22.4496 107.019 22.5017 107.292 22.5017C107.587 22.5017 107.84 22.4414 108.045 22.318C108.25 22.1973 108.407 22.0163 108.517 21.775C108.623 21.5365 108.68 21.2403 108.682 20.8893V13.8774Z" fill="#DDDDDD"/>
    <path d="M118.079 16.6197C118.034 16.1947 117.837 15.8629 117.494 15.6271C117.149 15.3885 116.702 15.2706 116.154 15.2706C115.77 15.2706 115.438 15.3282 115.163 15.4406C114.888 15.5558 114.674 15.7093 114.528 15.904C114.382 16.0987 114.309 16.3209 114.303 16.5704C114.303 16.7788 114.354 16.9598 114.452 17.1106C114.55 17.2642 114.682 17.3931 114.854 17.4973C115.022 17.6042 115.21 17.692 115.416 17.7632C115.623 17.8345 115.831 17.8949 116.039 17.9443L116.997 18.1773C117.382 18.2651 117.756 18.383 118.112 18.5338C118.469 18.6819 118.792 18.8711 119.076 19.0987C119.36 19.3263 119.584 19.6005 119.75 19.9214C119.916 20.2422 120 20.6179 120 21.0512C120 21.6353 119.848 22.1481 119.542 22.5923C119.236 23.0338 118.795 23.3793 118.216 23.6289C117.64 23.8757 116.944 24.0018 116.124 24.0018C115.331 24.0018 114.64 23.8812 114.059 23.6398C113.475 23.4013 113.019 23.0502 112.691 22.5895C112.362 22.1289 112.185 21.5667 112.16 20.9058H113.98C114.006 21.2513 114.118 21.5393 114.309 21.7724C114.503 22.0027 114.755 22.1727 115.065 22.2879C115.376 22.4003 115.725 22.4579 116.11 22.4579C116.511 22.4579 116.865 22.3976 117.171 22.2797C117.475 22.1618 117.713 21.9973 117.885 21.7834C118.059 21.5722 118.146 21.3227 118.149 21.0375C118.146 20.777 118.067 20.5603 117.916 20.3903C117.761 20.2203 117.548 20.0777 117.275 19.9625C117 19.8474 116.68 19.7431 116.315 19.6526L115.152 19.362C114.312 19.1508 113.646 18.83 113.16 18.3995C112.671 17.9689 112.429 17.3986 112.429 16.6828C112.429 16.096 112.592 15.5805 112.921 15.139C113.247 14.6975 113.694 14.3547 114.258 14.1106C114.826 13.8639 115.466 13.7432 116.18 13.7432C116.904 13.7432 117.539 13.8639 118.087 14.1106C118.635 14.3547 119.065 14.6947 119.376 15.128C119.688 15.5613 119.851 16.0576 119.86 16.6197H118.079Z" fill="#DDDDDD"/>
</svg>
