<svg width="120" height="37" viewBox="0 0 120 37" fill="none" xmlns="http://www.w3.org/2000/svg">
    <mask id="mask0_34_452" style="mask-type:luminance" maskUnits="userSpaceOnUse" x="0" y="0" width="120" height="37">
        <path d="M120 0.568848H0V36.4309H120V0.568848Z" fill="white"/>
    </mask>
    <g mask="url(#mask0_34_452)">
        <path d="M105.61 36.1491C105.3 36.1491 105.01 36.0655 104.741 35.919L101.99 34.2663C101.577 34.0361 101.784 33.9524 101.908 33.9106C102.466 33.7223 102.57 33.6804 103.149 33.3457C103.211 33.3039 103.294 33.3248 103.356 33.3667L105.465 34.6428C105.548 34.6847 105.651 34.6847 105.714 34.6428L113.966 29.81C114.049 29.7682 114.091 29.6845 114.091 29.58V19.9354C114.091 19.8308 114.049 19.7471 113.966 19.7053L105.714 14.8935C105.631 14.8516 105.527 14.8516 105.465 14.8935L97.2126 19.7053C97.1298 19.7471 97.0885 19.8517 97.0885 19.9354V29.58C97.0885 29.6637 97.1298 29.7682 97.2126 29.81L99.4671 31.1281C100.687 31.7557 101.453 31.0235 101.453 30.2912V20.7723C101.453 20.6467 101.556 20.5212 101.701 20.5212H102.756C102.88 20.5212 103.004 20.6258 103.004 20.7723V30.2912C103.004 31.944 102.115 32.9063 100.563 32.9063C100.088 32.9063 99.7153 32.9063 98.6604 32.3834L96.4886 31.1281C95.9509 30.8143 95.62 30.2285 95.62 29.6008V19.9563C95.62 19.3286 95.9509 18.7429 96.4886 18.429L104.741 13.5964C105.258 13.3035 105.962 13.3035 106.479 13.5964L114.732 18.429C115.269 18.7429 115.6 19.3286 115.6 19.9563V29.6008C115.6 30.2285 115.269 30.8143 114.732 31.1281L106.479 35.9608C106.231 36.0655 105.92 36.1491 105.61 36.1491Z" fill="#5FA04E"/>
        <path d="M108.175 29.517C104.555 29.517 103.811 27.8433 103.811 26.4206C103.811 26.2951 103.914 26.1696 104.059 26.1696H105.134C105.258 26.1696 105.362 26.2533 105.362 26.3788C105.527 27.4876 106.003 28.0316 108.196 28.0316C109.933 28.0316 110.678 27.6341 110.678 26.6927C110.678 26.1487 110.47 25.7512 107.761 25.4792C105.507 25.249 104.1 24.747 104.1 22.9268C104.1 21.2323 105.507 20.228 107.864 20.228C110.512 20.228 111.815 21.1486 111.981 23.157C111.981 23.2198 111.96 23.2825 111.919 23.3453C111.877 23.3871 111.815 23.429 111.752 23.429H110.656C110.554 23.429 110.45 23.3453 110.429 23.2407C110.181 22.09 109.54 21.7135 107.844 21.7135C105.941 21.7135 105.713 22.3829 105.713 22.885C105.713 23.4917 105.982 23.68 108.547 24.0147C111.091 24.3494 112.291 24.8307 112.291 26.6298C112.291 28.4709 110.781 29.517 108.175 29.517Z" fill="#5FA04E"/>
        <path d="M120.09 19.3911C120.09 20.2699 119.365 21.0021 118.496 21.0021C117.628 21.0021 116.904 20.2907 116.904 19.3911C116.904 18.4707 117.649 17.7803 118.496 17.7803C119.345 17.7803 120.09 18.4915 120.09 19.3911ZM117.152 19.3911C117.152 20.1443 117.752 20.7511 118.476 20.7511C119.221 20.7511 119.821 20.1234 119.821 19.3911C119.821 18.638 119.221 18.0523 118.476 18.0523C117.773 18.0523 117.152 18.638 117.152 19.3911ZM117.897 18.4915H118.518C118.724 18.4915 119.138 18.4915 119.138 18.9727C119.138 19.3075 118.931 19.3703 118.807 19.4121C119.055 19.433 119.076 19.6004 119.096 19.8305C119.117 19.977 119.138 20.228 119.179 20.3117H118.807C118.807 20.228 118.745 19.7678 118.745 19.7468C118.724 19.6423 118.683 19.6004 118.559 19.6004H118.249V20.3326H117.897V18.4915ZM118.228 19.2866H118.496C118.724 19.2866 118.765 19.1192 118.765 19.0356C118.765 18.7845 118.6 18.7845 118.496 18.7845H118.208V19.2866H118.228Z" fill="#5FA04E"/>
        <path fill-rule="evenodd" clip-rule="evenodd" d="M19.6286 19.5231C19.6286 19.1465 19.4218 18.7909 19.0909 18.6026L10.3418 13.4769C10.197 13.3933 10.0315 13.3514 9.86604 13.3306C9.84536 13.3306 9.78331 13.3306 9.78331 13.3306C9.61785 13.3306 9.45238 13.3933 9.30759 13.4769L0.537772 18.5816C0.206836 18.77 0 19.1257 0 19.5231L0.0206836 33.2473C0.0206836 33.4356 0.124102 33.6238 0.28957 33.7075C0.455038 33.8122 0.661874 33.8122 0.806658 33.7075L6.01891 30.6949C6.34985 30.5067 6.55668 30.151 6.55668 29.7744V23.3516C6.55668 22.9751 6.76351 22.6194 7.09445 22.4312L9.30759 21.134C9.47306 21.0294 9.65921 20.9876 9.84536 20.9876C10.0315 20.9876 10.2177 21.0294 10.3625 21.134L12.5756 22.4312C12.9065 22.6194 13.1134 22.9751 13.1134 23.3516V29.7744C13.1134 30.151 13.3202 30.5067 13.6511 30.6949L18.8221 33.7075C18.9875 33.8122 19.1943 33.8122 19.3598 33.7075C19.5253 33.6238 19.6286 33.4356 19.6286 33.2473V19.5231Z" fill="#DDDDDD"/>
        <path fill-rule="evenodd" clip-rule="evenodd" d="M61.7818 0.631611C61.6163 0.547927 61.4095 0.547927 61.2646 0.631611C61.0992 0.736215 60.9957 0.903583 60.9957 1.09187V14.6905C60.9957 14.816 60.9337 14.9415 60.8096 15.0253C60.6855 15.088 60.5615 15.088 60.4374 15.0253L58.2448 13.749C57.9139 13.5608 57.5209 13.5608 57.19 13.749L48.4202 18.8747C48.0893 19.063 47.8824 19.4186 47.8824 19.7952V30.0255C47.8824 30.4022 48.0893 30.7578 48.4202 30.9461L57.19 36.0718C57.5209 36.26 57.9139 36.26 58.2448 36.0718L67.0147 30.9461C67.3456 30.7578 67.5525 30.4022 67.5525 30.0255V4.52291C67.5525 4.12541 67.3456 3.76975 67.0147 3.58147L61.7818 0.631611ZM60.9751 26.6573C60.9751 26.7619 60.9337 26.8455 60.851 26.8874L57.8519 28.6448C57.7691 28.6867 57.6657 28.6867 57.583 28.6448L54.5839 26.8874C54.5011 26.8455 54.4597 26.741 54.4597 26.6573V23.1426C54.4597 23.038 54.5011 22.9543 54.5839 22.9124L57.583 21.1551C57.6657 21.1133 57.7691 21.1133 57.8519 21.1551L60.851 22.9124C60.9337 22.9543 60.9751 23.0589 60.9751 23.1426V26.6573Z" fill="#DDDDDD"/>
        <path fill-rule="evenodd" clip-rule="evenodd" d="M90.9655 23.0587C91.2966 22.8704 91.4826 22.5148 91.4826 22.1382V19.6486C91.4826 19.272 91.2758 18.9163 90.9655 18.7281L82.2578 13.6234C81.9269 13.4351 81.5339 13.4351 81.203 13.6234L72.4331 18.749C72.1022 18.9373 71.8954 19.293 71.8954 19.6696V29.8999C71.8954 30.2765 72.1022 30.6322 72.4331 30.8204L81.1409 35.8414C81.4718 36.0297 81.8648 36.0297 82.1751 35.8414L87.4493 32.8707C87.6149 32.787 87.7183 32.5987 87.7183 32.4104C87.7183 32.2221 87.6149 32.0338 87.4493 31.9501L78.6382 26.8245C78.4727 26.7199 78.3693 26.5526 78.3693 26.3642V23.1634C78.3693 22.9751 78.4727 22.7867 78.6382 22.703L81.3891 21.1131C81.5546 21.0085 81.7614 21.0085 81.9269 21.1131L84.6778 22.703C84.8433 22.8077 84.9466 22.9751 84.9466 23.1634V25.6738C84.9466 25.8622 85.0501 26.0504 85.2156 26.1341C85.381 26.2387 85.5878 26.2387 85.7533 26.1341L90.9655 23.0587Z" fill="#DDDDDD"/>
        <path fill-rule="evenodd" clip-rule="evenodd" d="M81.5961 22.5778C81.6581 22.5359 81.741 22.5359 81.803 22.5778L83.4784 23.561C83.5404 23.6029 83.5817 23.6657 83.5817 23.7494V25.7159C83.5817 25.7996 83.5404 25.8624 83.4784 25.9042L81.803 26.8875C81.741 26.9294 81.6581 26.9294 81.5961 26.8875L79.9207 25.9042C79.8587 25.8624 79.8174 25.7996 79.8174 25.7159V23.7494C79.8174 23.6657 79.8587 23.6029 79.9207 23.561L81.5961 22.5778Z" fill="#5FA04E"/>
        <path d="M34.2926 13.6653C33.9616 13.4771 33.5686 13.4771 33.2377 13.6653L24.5299 18.7492C24.199 18.9375 24.0128 19.2931 24.0128 19.6697V29.8581C24.0128 30.2348 24.2196 30.5904 24.5299 30.7787L33.2377 35.8625C33.5686 36.0508 33.9616 36.0508 34.2926 35.8625L43.0003 30.7787C43.3313 30.5904 43.5174 30.2348 43.5174 29.8581V19.6697C43.5174 19.2931 43.3105 18.9375 43.0003 18.7492L34.2926 13.6653Z" fill="url(#paint0_linear_34_452)"/>
        <path d="M43.0212 18.7492L34.2721 13.6653C34.1894 13.6235 34.0859 13.5817 34.0032 13.5608L24.1992 30.5277C24.2819 30.6322 24.3854 30.7159 24.4887 30.7787L33.2379 35.8625C33.4861 36.0089 33.7757 36.0508 34.0445 35.9671L43.2487 18.9375C43.1867 18.8538 43.104 18.791 43.0212 18.7492Z" fill="url(#paint1_linear_34_452)"/>
        <path d="M43.0213 30.7785C43.2695 30.632 43.4557 30.3809 43.5384 30.1089L33.9618 13.5396C33.7137 13.4977 33.4447 13.5186 33.2173 13.6651L24.5302 18.7279L33.8998 36.0087C34.0239 35.9877 34.1687 35.9458 34.2929 35.8831L43.0213 30.7785Z" fill="url(#paint2_linear_34_452)"/>
    </g>
    <defs>
        <linearGradient id="paint0_linear_34_452" x1="37.3115" y1="17.4516" x2="29.2924" y2="33.6248" gradientUnits="userSpaceOnUse">
            <stop stop-color="#3F873F"/>
            <stop offset="0.3296" stop-color="#3F8B3D"/>
            <stop offset="0.6367" stop-color="#3E9638"/>
            <stop offset="0.9341" stop-color="#3DA92E"/>
            <stop offset="1" stop-color="#3DAE2B"/>
        </linearGradient>
        <linearGradient id="paint1_linear_34_452" x1="32.4419" y1="25.9536" x2="54.7109" y2="9.68681" gradientUnits="userSpaceOnUse">
            <stop offset="0.1376" stop-color="#3F873F"/>
            <stop offset="0.4016" stop-color="#52A044"/>
            <stop offset="0.7129" stop-color="#64B749"/>
            <stop offset="0.9081" stop-color="#6ABF4B"/>
        </linearGradient>
        <linearGradient id="paint2_linear_34_452" x1="23.6938" y1="24.7604" x2="43.8431" y2="24.7604" gradientUnits="userSpaceOnUse">
            <stop offset="0.0919165" stop-color="#6ABF4B"/>
            <stop offset="0.2871" stop-color="#64B749"/>
            <stop offset="0.5984" stop-color="#52A044"/>
            <stop offset="0.8624" stop-color="#3F873F"/>
        </linearGradient>
    </defs>
</svg>
