<svg width="55" height="54" viewBox="0 0 55 54" fill="none" xmlns="http://www.w3.org/2000/svg">
    <path d="M45.2604 0.0839844H9.73958C4.36056 0.0839844 0 4.45235 0 9.84099V44.0479C0 49.4366 4.36056 53.8049 9.73958 53.8049H45.2604C50.6394 53.8049 55 49.4366 55 44.0479V9.84099C55 4.45235 50.6394 0.0839844 45.2604 0.0839844Z" fill="#001E36"/>
    <path d="M12.3846 37.7563V14.1377C12.3846 13.9656 12.4585 13.879 12.6061 13.879C12.9992 13.879 13.3581 13.8732 13.8995 13.8605C14.4403 13.8484 15.0245 13.8361 15.652 13.8236C16.2793 13.8114 16.9435 13.7991 17.6445 13.7866C18.3454 13.7745 19.0402 13.7683 19.729 13.7681C21.598 13.7681 23.1723 14.0022 24.4517 14.4704C25.6057 14.8614 26.6582 15.5054 27.5325 16.3554C28.2737 17.0922 28.8464 17.9812 29.2112 18.9612C29.5564 19.915 29.7313 20.9222 29.7279 21.9366C29.7279 23.9083 29.2728 25.5347 28.3627 26.8156C27.4466 28.1018 26.1589 29.0758 24.6731 29.6062C23.1234 30.1855 21.4014 30.3819 19.5077 30.3819C18.9663 30.3819 18.5851 30.3758 18.3639 30.3635C18.1425 30.3513 17.8105 30.3451 17.3678 30.345V37.7194C17.3742 37.7646 17.37 37.8106 17.3556 37.8539C17.3412 37.8972 17.3169 37.9366 17.2847 37.9689C17.2525 38.0011 17.2132 38.0255 17.17 38.0399C17.1268 38.0543 17.0808 38.0585 17.0357 38.052H12.6429C12.4706 38.052 12.3846 37.9538 12.3846 37.7563ZM17.3677 18.3144V26.0178C17.6871 26.0426 17.9823 26.055 18.2532 26.0548H19.4708C20.3666 26.0518 21.2566 25.9095 22.1089 25.6329C22.8398 25.4154 23.493 24.992 23.9905 24.4131C24.4701 23.8466 24.71 23.0581 24.71 22.0476C24.7295 21.3326 24.5438 20.627 24.1749 20.0146C23.7872 19.4225 23.2268 18.9643 22.57 18.7025C21.7124 18.3685 20.7963 18.2114 19.8766 18.2405C19.2862 18.2405 18.7636 18.2467 18.3086 18.2589C17.8532 18.2717 17.5396 18.2902 17.3677 18.3144Z" fill="#31A8FF"/>
    <path d="M43.9934 24.6172C43.3 24.2602 42.5615 23.9991 41.798 23.8409C40.9569 23.6476 40.0968 23.5484 39.2338 23.5452C38.7669 23.5325 38.3008 23.5886 37.8502 23.7116C37.5634 23.7756 37.3085 23.9392 37.1307 24.1736C37.0104 24.361 36.9464 24.5791 36.9463 24.802C36.953 25.0181 37.0308 25.226 37.1676 25.3933C37.3831 25.6459 37.6464 25.8532 37.9424 26.0032C38.4684 26.287 39.0105 26.54 39.5658 26.7609C40.8041 27.1762 41.9873 27.7409 43.0893 28.4427C43.8401 28.9174 44.4613 29.5715 44.8973 30.3462C45.2638 31.0798 45.4474 31.8915 45.4323 32.7118C45.4543 33.7949 45.1454 34.8589 44.5468 35.7611C43.906 36.677 43.0158 37.3891 41.9825 37.8125C40.8629 38.3052 39.4793 38.5516 37.8317 38.5518C36.785 38.5624 35.7401 38.4632 34.714 38.2561C33.9056 38.1076 33.1186 37.8592 32.3711 37.5168C32.2904 37.4751 32.2233 37.4112 32.1776 37.3327C32.1318 37.2541 32.1094 37.1641 32.1128 37.0732V33.0814C32.1084 33.0423 32.1146 33.0027 32.1309 32.9669C32.1472 32.9311 32.1728 32.9004 32.2052 32.8781C32.2368 32.8602 32.2732 32.8523 32.3095 32.8556C32.3457 32.8589 32.3801 32.8732 32.408 32.8966C33.2908 33.418 34.2493 33.7984 35.249 34.0239C36.1302 34.2452 37.034 34.363 37.9424 34.3751C38.8031 34.3751 39.4365 34.2642 39.8425 34.0424C40.0259 33.9583 40.181 33.8228 40.289 33.6522C40.3971 33.4817 40.4535 33.2834 40.4514 33.0814C40.4514 32.7615 40.2669 32.4535 39.8979 32.1574C39.529 31.8617 38.7788 31.5043 37.6472 31.0854C36.4887 30.6815 35.3903 30.122 34.3819 29.4222C33.6607 28.9197 33.0669 28.2551 32.6478 27.4816C32.285 26.7533 32.1015 25.9485 32.1129 25.1346C32.1108 24.1566 32.379 23.1972 32.8876 22.3625C33.4676 21.4433 34.3005 20.7116 35.2859 20.2556C36.368 19.7139 37.7208 19.4429 39.3445 19.4425C40.2954 19.4348 41.2453 19.5028 42.1855 19.6458C42.8662 19.7323 43.5318 19.9126 44.1633 20.1817C44.2134 20.1961 44.2595 20.222 44.2979 20.2572C44.3363 20.2925 44.366 20.3363 44.3847 20.385C44.4096 20.4753 44.422 20.5685 44.4216 20.6622V24.3954C44.4241 24.4388 44.4153 24.4821 44.3958 24.5211C44.3764 24.56 44.3471 24.5931 44.3109 24.6171C44.2616 24.6417 44.2072 24.6545 44.1521 24.6545C44.097 24.6545 44.0427 24.6417 43.9934 24.6172Z" fill="#31A8FF"/>
</svg>
