<svg width="55" height="55" viewBox="0 0 55 55" fill="none" xmlns="http://www.w3.org/2000/svg">
    <path d="M0 10.5703L9.36719 0L28.5313 4.125L31.1094 11.9453L29.2188 25.5234L21.5999 21.6244L22 32.4844V41.9375L5.24219 42.1094L0 10.5703Z" fill="url(#paint0_linear_34_492)"/>
    <path d="M17.3594 32.2266L18.3906 19.25L33.9453 3.26562L47.8672 5.84375L55 23.6328L47.5234 31.0234L35.4062 29.0469L27.7578 36.9531L17.3594 32.2266Z" fill="url(#paint1_linear_34_492)"/>
    <path d="M33.9453 3.26562L11.6016 23.1172L15.8984 48.5547L34.4609 55L55 42.7109L33.9453 3.26562Z" fill="url(#paint2_linear_34_492)"/>
    <path d="M44.6875 10.3125H10.3125V44.6875H44.6875V10.3125Z" fill="black"/>
    <path d="M13.5781 38.2423H26.4687V40.3907H13.5781V38.2423ZM13.4062 14.7813H19.25C22.6875 14.7813 24.75 16.7579 24.75 19.6798C24.75 22.9454 22.1719 24.6641 18.9922 24.6641H16.5859V28.961H13.4062V14.7813ZM19.0781 22.086C20.5777 22.086 21.5703 21.0548 21.5703 19.8516C21.5703 18.4766 20.625 17.7032 18.9922 17.7032H16.5859V22.086H19.0781ZM25.5234 26.9845L27.4141 24.7501C28.7031 25.7813 30.0781 26.4688 31.7109 26.4688C33 26.4688 33.7734 25.9532 33.7734 25.0938C33.7734 24.3204 33.2578 23.8907 30.8516 23.2891C27.9297 22.5157 26.125 21.7423 26.125 18.9063V18.8204C26.125 16.2423 28.1875 14.5235 31.1094 14.5235C33.0368 14.5153 34.9118 15.1504 36.4375 16.3282L34.8047 18.7345C33.5156 17.8751 32.3125 17.3595 31.1094 17.3595C29.9062 17.3595 29.3047 17.8751 29.3047 18.6485C29.3047 19.5938 29.9062 19.9376 32.3984 20.5391C35.3203 21.3126 36.9531 22.3438 36.9531 24.836C36.9531 27.672 34.8047 29.3048 31.7109 29.3048C29.4303 29.3356 27.2215 28.5073 25.5234 26.9845Z" fill="white"/>
    <defs>
        <linearGradient id="paint0_linear_34_492" x1="42.1093" y1="6069" x2="3477.05" y2="1983.72" gradientUnits="userSpaceOnUse">
            <stop offset="0.02" stop-color="#765AF8"/>
            <stop offset="0.38" stop-color="#B345F1"/>
            <stop offset="0.76" stop-color="#FA3293"/>
            <stop offset="0.94" stop-color="#FF318C"/>
        </linearGradient>
        <linearGradient id="paint1_linear_34_492" x1="2276.66" y1="3322.17" x2="1206.62" y2="151.163" gradientUnits="userSpaceOnUse">
            <stop offset="0.18" stop-color="#765AF8"/>
            <stop offset="0.24" stop-color="#8655F6"/>
            <stop offset="0.34" stop-color="#9F4CF3"/>
            <stop offset="0.44" stop-color="#AE47F2"/>
            <stop offset="0.52" stop-color="#B345F1"/>
        </linearGradient>
        <linearGradient id="paint2_linear_34_492" x1="3820.78" y1="4183.27" x2="498.667" y2="2375.49" gradientUnits="userSpaceOnUse">
            <stop offset="0.02" stop-color="#765AF8"/>
            <stop offset="0.38" stop-color="#B345F1"/>
        </linearGradient>
    </defs>
</svg>
