<svg width="49" height="46" viewBox="0 0 49 46" fill="none" xmlns="http://www.w3.org/2000/svg">
    <path fill-rule="evenodd" clip-rule="evenodd" d="M38.6262 14.9019C39.1635 15.0618 39.6853 15.2309 40.1889 15.4097C45.432 17.2706 48.8202 20.1856 48.8202 23.1998C48.8202 26.3431 45.1993 29.4165 39.6341 31.3176C39.34 31.4181 39.0384 31.5148 38.7313 31.6084C38.8409 32.0628 38.9386 32.5092 39.0225 32.9462C40.1211 38.668 39.2749 43.3709 36.6711 44.925C34.1501 46.4297 30.0752 44.9516 25.9495 41.2911C25.5138 40.9045 25.0758 40.4922 24.6371 40.0567C24.2986 40.394 23.9608 40.7158 23.6241 41.0192C19.3647 44.858 14.9904 46.4508 12.3841 44.9012C9.86071 43.4006 9.06781 39.0228 10.0831 33.5093C10.1902 32.9277 10.3177 32.3313 10.4644 31.7227C10.0126 31.5891 9.57426 31.4483 9.1518 31.2994C3.79853 29.4129 0.274902 26.3017 0.274902 23.1998C0.274902 20.1964 3.55727 17.301 8.69686 15.4535C9.27131 15.2471 9.87169 15.053 10.4936 14.871C10.3577 14.3083 10.2375 13.7549 10.1346 13.2129C9.0698 7.60214 9.81906 3.11835 12.3491 1.60825C14.9877 0.0333869 19.3818 1.72461 23.7656 5.73781C24.0332 5.98272 24.3014 6.23877 24.57 6.50373C24.9732 6.10326 25.3766 5.72115 25.7788 5.36024C29.9618 1.60701 34.1035 0.0370393 36.636 1.54277C39.2771 3.11309 40.0506 7.8826 38.8676 13.803C38.7955 14.1635 38.7145 14.5303 38.6262 14.9019ZM38.1665 29.5511C38.4441 29.4662 38.7164 29.3787 38.9819 29.2881C43.7871 27.6465 46.7464 25.1347 46.7464 23.1998C46.7464 21.3833 44.0062 19.0259 39.5139 17.4314C39.0494 17.2665 38.5675 17.1102 38.0709 16.9621C37.4737 18.9544 36.6765 21.0596 35.7082 23.2102C36.7229 25.4134 37.5521 27.5458 38.1665 29.5511ZM37.2214 39.9674C37.5432 38.1791 37.4739 35.8916 36.9881 33.3615C36.9123 32.9666 36.8243 32.5626 36.7253 32.1507C34.7146 32.63 32.4974 32.981 30.1506 33.1957C28.8163 35.1872 27.4492 36.9803 26.0814 38.5227C26.4901 38.9283 26.8975 39.3115 27.302 39.6703C30.8304 42.8008 34.102 43.9876 35.6319 43.0746C36.3509 42.6455 36.9323 41.5742 37.2214 39.9674ZM13.4203 43.0488C14.1399 43.4767 15.3304 43.4611 16.8251 42.9168C18.4885 42.3111 20.376 41.1067 22.2595 39.4093C22.5662 39.1327 22.8747 38.8393 23.1844 38.531C21.7669 36.9627 20.3603 35.1715 19.0171 33.2228C16.6647 33.0262 14.4637 32.6999 12.4751 32.2465C12.3386 32.8135 12.2202 33.3682 12.1208 33.9082C11.2525 38.6232 11.889 42.1382 13.4203 43.0488ZM4.16061 26.1748C5.50057 27.3579 7.45542 28.442 9.82254 29.2762C10.2076 29.4118 10.6077 29.5406 11.0208 29.663C11.6342 27.6018 12.4424 25.4378 13.4165 23.2519C12.4548 21.0979 11.658 18.9678 11.0505 16.9305C10.4711 17.1002 9.91284 17.2809 9.37952 17.4726C4.98409 19.0526 2.34867 21.3773 2.34867 23.1998C2.34867 24.0563 2.95657 25.1117 4.16061 26.1748ZM13.3882 3.45877C11.8635 4.36875 11.2576 7.99513 12.1699 12.8023C12.2654 13.3056 12.3773 13.8204 12.5036 14.3443C14.513 13.875 16.6984 13.5245 18.9816 13.3063C20.3129 11.3691 21.7066 9.59138 23.1171 8.02987C22.8735 7.79004 22.6306 7.55822 22.3886 7.33674C18.6035 3.87153 15.0122 2.48937 13.3882 3.45877ZM31.6339 15.6303C32.1366 16.4428 32.6298 17.278 33.1101 18.1335C33.6006 19.007 34.0664 19.8761 34.5067 20.738C35.1206 19.2562 35.642 17.8107 36.0604 16.4282C34.6668 16.1002 33.1828 15.8322 31.6339 15.6303ZM27.4275 13.1137C26.4853 11.8194 25.5273 10.6264 24.5708 9.55797C23.5992 10.6387 22.633 11.8301 21.6898 13.1124C22.6334 13.0669 23.5876 13.0434 24.5476 13.0434C25.5168 13.0434 26.478 13.0675 27.4275 13.1137ZM14.6063 20.7364C15.0397 19.8705 15.4968 19.0061 15.9767 18.1483C16.4578 17.2881 16.955 16.4465 17.4648 15.6266C15.9258 15.8247 14.4488 16.086 13.0637 16.4055C13.4857 17.8077 14.0024 19.2598 14.6063 20.7364ZM13.0351 30.184C14.4198 30.4948 15.919 30.7427 17.5091 30.9256C16.9862 30.0889 16.4766 29.231 15.9849 28.3551C15.5021 27.4954 15.0432 26.6306 14.6086 25.7653C13.9919 27.2738 13.4639 28.7569 13.0351 30.184ZM21.7073 33.3885C22.6648 34.6895 23.6452 35.899 24.6281 36.9924C25.5782 35.914 26.5327 34.7026 27.478 33.3782C26.5152 33.4223 25.5371 33.4453 24.5476 33.4453C23.5845 33.4453 22.6368 33.4261 21.7073 33.3885ZM36.1566 30.0914C35.7223 28.6886 35.1753 27.2132 34.5265 25.6884C34.0825 26.5708 33.613 27.4563 33.1184 28.3404C32.6296 29.2143 32.1322 30.0639 31.6282 30.8872C33.2294 30.6891 34.7491 30.4225 36.1566 30.0914ZM28.9932 31.1462C29.7841 29.9238 30.5632 28.6288 31.3221 27.2722C32.0799 25.9172 32.7775 24.5606 33.408 23.2208C32.7756 21.9035 32.0764 20.5605 31.3152 19.2049C30.5626 17.8643 29.7789 16.576 28.9762 15.3543C27.5329 15.2408 26.0504 15.1816 24.5475 15.1816C23.0513 15.1816 21.5709 15.2403 20.1271 15.3528C19.3119 16.5835 18.5229 17.8761 17.7732 19.2165L17.7734 19.2162C17.0257 20.553 16.3354 21.9051 15.7084 23.2511C16.3355 24.5941 17.0275 25.9446 17.7795 27.2839C18.5335 28.6267 19.3295 29.9256 20.1523 31.1641C21.5674 31.2588 23.0369 31.3071 24.5476 31.3071C26.0644 31.3071 27.5527 31.2524 28.9932 31.1462ZM36.8366 13.3714C37.8579 8.25982 37.2258 4.36172 35.6001 3.39516C34.074 2.48777 30.7243 3.75741 27.1403 6.97316C26.7694 7.3061 26.3969 7.6589 26.0238 8.02889C27.4113 9.57035 28.7936 11.3508 30.1275 13.3093C32.4173 13.5308 34.6043 13.8874 36.6184 14.3665C36.6981 14.0298 36.7714 13.6976 36.8366 13.3714Z" fill="#53C1DE"/>
    <path d="M24.5476 18.7305C26.9417 18.7305 28.8825 20.7315 28.8825 23.1999C28.8825 25.6683 26.9417 27.6694 24.5476 27.6694C22.1535 27.6694 20.2126 25.6683 20.2126 23.1999C20.2126 20.7315 22.1535 18.7305 24.5476 18.7305Z" fill="#53C1DE"/>
</svg>
