<svg width="55" height="42" viewBox="0 0 55 42" fill="none" xmlns="http://www.w3.org/2000/svg">
    <path d="M47.3301 24.2959C45.4072 24.3066 43.7422 24.7669 42.3457 25.452C41.8301 24.435 41.3144 23.5466 41.2285 22.8829C41.1318 22.1122 41.0136 21.6412 41.1318 20.7206C41.25 19.8 41.7871 18.494 41.7871 18.387C41.7763 18.2907 41.6689 17.8197 40.5625 17.809C39.456 17.7983 38.5 18.023 38.3926 18.3121C38.2851 18.6011 38.0703 19.2648 37.9306 19.9499C37.7373 20.9561 35.7177 24.5207 34.5683 26.394C34.1924 25.6661 33.8701 25.0238 33.8056 24.51C33.709 23.7392 33.5908 23.2682 33.709 22.3477C33.8271 21.4271 34.3642 20.1211 34.3642 20.0141C34.3535 19.9177 34.2461 19.4467 33.1396 19.436C32.0332 19.4253 31.0771 19.6501 30.9697 19.9392C30.8623 20.2282 30.7441 20.9133 30.5078 21.5769C30.2822 22.2406 27.5967 28.1923 26.8984 29.7445C26.5439 30.5366 26.2324 31.1682 26.0068 31.5963C25.7812 32.0245 25.9961 31.6285 25.9746 31.6713C25.7812 32.0352 25.6738 32.2386 25.6738 32.2386V32.2493C25.5234 32.5169 25.3623 32.7738 25.2871 32.7738C25.2334 32.7738 25.126 32.0566 25.3086 31.0718C25.706 29.0059 26.6728 25.7838 26.6621 25.6661C26.6621 25.6125 26.8447 25.0452 26.039 24.7562C25.2549 24.4672 24.9756 24.9489 24.9111 24.9489C24.8467 24.9489 24.7929 25.1201 24.7929 25.1201C24.7929 25.1201 25.6631 21.4913 23.1279 21.4913C21.5381 21.4913 19.3467 23.2147 18.2617 24.7883C17.5742 25.1629 16.1133 25.9551 14.5664 26.8007C13.9756 27.1219 13.3633 27.4644 12.7832 27.7748L12.665 27.6464C9.59275 24.3815 3.91013 22.0693 4.14646 17.6805C4.2324 16.0855 4.79099 11.8787 15.0605 6.78333C23.4717 2.60857 30.207 3.75395 31.3779 6.30162C33.0429 9.94115 27.7793 16.7064 19.0351 17.6805C15.7051 18.0552 13.9541 16.7706 13.5136 16.2889C13.0517 15.7858 12.9873 15.7644 12.8154 15.8607C12.5361 16.0106 12.708 16.4602 12.8154 16.7278C13.0732 17.4022 14.1474 18.6011 15.9736 19.2005C17.5742 19.7251 21.4843 20.0141 26.2109 18.1943C31.5068 16.1498 35.6426 10.4764 34.4287 5.73429C33.1933 0.906558 25.1582 -0.677708 17.5634 2.00912C13.041 3.6148 8.14255 6.11965 4.61911 9.40593C0.429661 13.3024 -0.236354 16.7064 0.0429425 18.1194C1.02048 23.1612 7.99216 26.4475 10.7851 28.8774C10.6455 28.9523 10.5166 29.0273 10.3984 29.0915C9.00193 29.7766 3.68454 32.549 2.35251 35.4821C0.848607 38.8005 2.58884 41.1876 3.749 41.5087C7.33689 42.5042 11.0107 40.7166 12.998 37.7728C14.9746 34.8291 14.7383 31.0076 13.8252 29.2628L13.7929 29.1985L14.8886 28.5563C15.5976 28.1388 16.2959 27.7534 16.9082 27.4216C16.5644 28.3529 16.3174 29.4554 16.1884 31.0611C16.0381 32.9451 16.8115 35.3857 17.832 36.3491C18.2832 36.7666 18.8203 36.7773 19.1533 36.7773C20.3349 36.7773 20.872 35.8032 21.4629 34.6364C22.1933 33.2127 22.8379 31.5642 22.8379 31.5642C22.8379 31.5642 22.0322 36.028 24.2343 36.028C25.04 36.028 25.8457 34.9897 26.2109 34.4544V34.4652C26.2109 34.4652 26.2324 34.433 26.2754 34.3581C26.3613 34.2297 26.4043 34.1547 26.4043 34.1547V34.1333C26.7265 33.5767 27.4463 32.3028 28.5205 30.1941C29.9062 27.4751 31.2383 24.0711 31.2383 24.0711C31.2383 24.0711 31.3672 24.906 31.7646 26.2762C32.001 27.0898 32.5166 27.9782 32.914 28.8453C32.5918 29.2949 32.3984 29.5518 32.3984 29.5518L32.4092 29.5625C32.1513 29.905 31.8613 30.269 31.5605 30.6329C30.4648 31.9389 29.1543 33.4268 28.9824 33.855C28.7783 34.3581 28.8213 34.7328 29.2187 35.0325C29.5088 35.2466 30.0244 35.2894 30.5722 35.2466C31.5605 35.1824 32.248 34.9362 32.5918 34.7863C33.1289 34.5936 33.7412 34.3046 34.332 33.8764C35.4062 33.0843 36.0615 31.9603 35.997 30.4617C35.9648 29.6374 35.6963 28.8239 35.3633 28.0532C35.4599 27.914 35.5566 27.7748 35.6533 27.625C37.3506 25.1522 38.6611 22.4333 38.6611 22.4333C38.6611 22.4333 38.79 23.2682 39.1875 24.6384C39.3916 25.3342 39.7998 26.0942 40.165 26.8435C38.5752 28.1388 37.5761 29.6374 37.2324 30.6222C36.5986 32.442 37.0927 33.2663 38.0273 33.4589C38.4463 33.5446 39.0478 33.3519 39.499 33.1592C40.0576 32.9772 40.7343 32.6668 41.3574 32.2065C42.4316 31.4144 43.4629 30.3118 43.4092 28.8239C43.3769 28.1388 43.1943 27.4644 42.9472 26.8221C44.3008 26.2655 46.0517 25.9444 48.2754 26.212C53.0556 26.7686 54.0009 29.7445 53.8183 30.9862C53.6357 32.2279 52.6367 32.913 52.3037 33.1271C51.9707 33.3305 51.8633 33.4054 51.8955 33.5553C51.9385 33.7801 52.0888 33.7694 52.3789 33.7265C52.7763 33.6623 54.8926 32.7096 54.9785 30.4189C55.1074 27.4751 52.3037 24.2638 47.3301 24.2959ZM10.4629 36.681C8.88376 38.4044 6.66013 39.0574 5.71482 38.5007C4.69431 37.912 5.09177 35.375 7.03611 33.5446C8.21775 32.4313 9.75388 31.4037 10.7636 30.7721C10.9892 30.6329 11.333 30.4296 11.7412 30.1834C11.8056 30.1405 11.8486 30.1191 11.8486 30.1191C11.9238 30.0763 12.0097 30.0228 12.0957 29.9693C12.8154 32.5812 12.1279 34.8719 10.4629 36.681ZM22.0107 28.856C21.4629 30.1941 20.3027 33.6302 19.6045 33.4375C19.0029 33.277 18.6377 30.6758 19.4863 28.1067C19.916 26.8114 20.8291 25.27 21.3662 24.6705C22.2363 23.7071 23.1816 23.386 23.4179 23.7821C23.6972 24.2959 22.3545 28.021 22.0107 28.856ZM31.539 33.3947C31.3027 33.5125 31.0879 33.5981 30.9912 33.5339C30.916 33.491 31.0879 33.3305 31.0879 33.3305C31.0879 33.3305 32.2802 32.0566 32.7529 31.4679C33.0215 31.1254 33.3437 30.7293 33.6875 30.2797V30.4082C33.6875 31.9496 32.2051 32.9772 31.539 33.3947ZM38.8867 31.7248C38.7148 31.5963 38.7363 31.2003 39.3164 29.9586C39.542 29.4662 40.0576 28.6419 40.9492 27.8605C41.0566 28.1816 41.1211 28.492 41.1103 28.7811C41.0996 30.7079 39.7246 31.4251 38.8867 31.7248Z" fill="#CF649A"/>
</svg>
