<svg width="55" height="56" viewBox="0 0 55 56" fill="none" xmlns="http://www.w3.org/2000/svg">
    <path fill-rule="evenodd" clip-rule="evenodd" d="M0 0.734619H2.06776H3.77451H51.2253H53.0726H54.9999V2.04829C55.0906 2.28042 55.1404 2.53297 55.1404 2.79712V53.6721C55.1404 53.9363 55.0906 54.1888 54.9999 54.421V55.7346H53.0726H51.2253H3.77451H2.06776H0V53.6721V2.79712V0.734619ZM30.6522 25.4846V29.9955H23.6117V50.0802H18.0342V29.9955H11.0281V25.4846H30.6522ZM36.0669 50.579C34.8389 50.3503 33.7752 50.0072 32.8758 49.5499V44.0611C33.879 44.8958 34.9687 45.522 36.1447 45.9393C37.3209 46.3567 38.5086 46.5653 39.7079 46.5653C40.4112 46.5653 41.0254 46.5024 41.55 46.3766C42.0747 46.2509 42.5127 46.0764 42.8644 45.8534C43.2161 45.6305 43.4784 45.3675 43.6514 45.0644C43.8244 44.7615 43.911 44.4328 43.911 44.0782C43.911 43.5978 43.7726 43.169 43.4958 42.7916C43.219 42.4143 42.8413 42.0656 42.3628 41.7454C41.8843 41.4253 41.3164 41.1165 40.6592 40.8193C40.0018 40.5218 39.2929 40.2189 38.5317 39.9101C36.5945 39.1096 35.1503 38.1319 34.199 36.9769C33.2476 35.8221 32.772 34.427 32.772 32.7916C32.772 31.5109 33.0314 30.4103 33.5504 29.4897C34.0692 28.5693 34.7754 27.8118 35.6691 27.2171C36.5629 26.6225 37.5977 26.185 38.7739 25.9049C39.9501 25.6247 41.1954 25.4846 42.5098 25.4846C43.8013 25.4846 44.9458 25.5618 45.9431 25.7163C46.9407 25.8705 47.8602 26.1078 48.7021 26.4281V31.5566C48.2869 31.2708 47.8344 31.0193 47.3443 30.8021C46.8543 30.5846 46.3497 30.4046 45.8307 30.2616C45.312 30.1188 44.7959 30.013 44.2828 29.9443C43.7696 29.8757 43.2825 29.8415 42.8212 29.8415C42.1871 29.8415 41.6104 29.9015 41.0916 30.0215C40.5726 30.1416 40.1346 30.3102 39.7771 30.5275C39.4195 30.7447 39.1429 31.0049 38.9469 31.3081C38.7508 31.611 38.6529 31.9511 38.6529 32.3285C38.6529 32.7402 38.7623 33.1091 38.9815 33.4349C39.2006 33.7608 39.5118 34.0695 39.9155 34.3612C40.3189 34.6527 40.809 34.9387 41.3856 35.2188C41.9621 35.4988 42.6136 35.7876 43.3402 36.085C44.3318 36.4967 45.2224 36.9341 46.0123 37.3972C46.8023 37.8603 47.4798 38.3834 48.0447 38.9666C48.6098 39.5498 49.0422 40.2159 49.3419 40.965C49.6417 41.7141 49.7917 42.5858 49.7917 43.5807C49.7917 44.9529 49.5293 46.105 49.0047 47.037C48.48 47.969 47.7679 48.7236 46.8685 49.3011C45.9691 49.8786 44.9228 50.2932 43.7294 50.5447C42.5358 50.7963 41.2762 50.9221 39.9501 50.9221C38.5893 50.9221 37.2951 50.8077 36.0669 50.579Z" fill="#3178C6"/>
</svg>
