<svg width="55" height="54" viewBox="0 0 55 54" fill="none" xmlns="http://www.w3.org/2000/svg">
    <path d="M9.73958 0.16333H45.2604C50.6458 0.16333 55 4.5124 55 9.89152V43.9974C55 49.3765 50.6458 53.7256 45.2604 53.7256H9.73958C4.35417 53.7256 0 49.3765 0 43.9974V9.89152C0 4.5124 4.35417 0.16333 9.73958 0.16333Z" fill="#470137"/>
    <path d="M28.9207 14.2406L22.0457 25.571L29.379 37.5882C29.4249 37.6798 29.4478 37.7713 29.4249 37.8629C29.402 37.9545 29.3103 37.8858 29.1728 37.9087H23.9249C23.5582 37.9087 23.3061 37.8858 23.1457 37.6569C22.6645 36.6955 22.1603 35.757 21.679 34.7957C21.1978 33.8572 20.6707 32.8958 20.1207 31.9115C19.5707 30.9273 19.0207 29.943 18.4707 28.9359H18.4249C17.9436 29.9201 17.4165 30.9044 16.8895 31.8887C16.3624 32.8729 15.8353 33.8572 15.3311 34.8186C14.804 35.7799 14.277 36.7642 13.7499 37.7027C13.6582 37.9316 13.4749 37.9545 13.2228 37.9545H8.18113C8.08946 37.9545 8.02071 38.0002 8.02071 37.8858C7.99779 37.7942 8.02071 37.7027 8.06654 37.634L15.1936 25.9602L8.24988 14.2177C8.18113 14.1261 8.15821 14.0346 8.20404 13.9888C8.24988 13.9201 8.34154 13.8972 8.43321 13.8972H13.6353C13.7499 13.8972 13.8645 13.9201 13.9561 13.943C14.0478 13.9888 14.1165 14.0574 14.1853 14.149C14.6207 15.1333 15.1249 16.1175 15.652 17.1018C16.202 18.0861 16.729 19.0474 17.302 20.0088C17.852 20.9702 18.3561 21.9316 18.8374 22.9158H18.8832C19.3645 21.9087 19.8686 20.9244 20.3728 19.963C20.877 19.0017 21.404 18.0403 21.9311 17.0789C22.4582 16.1175 22.9624 15.1333 23.4665 14.1948C23.4895 14.1032 23.5353 14.0117 23.604 13.9659C23.6957 13.9201 23.7874 13.8972 23.902 13.9201H28.7374C28.852 13.8972 28.9665 13.9659 28.9895 14.0803C29.0124 14.1032 28.9665 14.1948 28.9207 14.2406Z" fill="#FF61F6"/>
    <path d="M39.5082 38.3895C37.8123 38.4124 36.1165 38.069 34.5811 37.3594C33.1373 36.6956 31.9457 35.5969 31.1207 34.2464C30.2727 32.8501 29.8602 31.1105 29.8602 29.0275C29.8373 27.3337 30.2727 25.6627 31.1207 24.1978C31.9915 22.7099 33.2519 21.4739 34.7644 20.6498C36.3686 19.7571 38.2936 19.3222 40.5623 19.3222C40.6769 19.3222 40.8373 19.3222 41.0436 19.3451C41.2498 19.368 41.479 19.368 41.754 19.3909V12.1577C41.754 11.9975 41.8227 11.9059 41.9832 11.9059H46.6352C46.7498 11.883 46.8415 11.9746 46.8644 12.0661V33.9031C46.8644 34.3151 46.8873 34.7729 46.9102 35.2765C46.9561 35.7571 46.979 36.2149 47.0019 36.6041C47.0019 36.7643 46.9332 36.9016 46.7727 36.9703C45.5811 37.4739 44.3207 37.8401 43.0373 38.069C41.8686 38.275 40.6998 38.3895 39.5082 38.3895ZM41.754 33.8115V23.74C41.5477 23.6942 41.3415 23.6484 41.1352 23.6255C40.8832 23.6026 40.6311 23.5797 40.379 23.5797C39.4852 23.5797 38.5915 23.7629 37.7894 24.1749C37.0102 24.564 36.3457 25.1362 35.8415 25.8687C35.3373 26.6012 35.0852 27.5855 35.0852 28.7757C35.0623 29.5769 35.1998 30.378 35.4748 31.1334C35.704 31.7514 36.0477 32.3008 36.5061 32.7586C36.9415 33.1706 37.4686 33.491 38.0644 33.6742C38.6832 33.8802 39.3248 33.9717 39.9665 33.9717C40.3102 33.9717 40.6311 33.9488 40.929 33.9259C41.2269 33.9488 41.479 33.9031 41.754 33.8115Z" fill="#FF61F6"/>
</svg>
