<svg width="1038" height="660" viewBox="0 0 1038 660" fill="none" xmlns="http://www.w3.org/2000/svg">
    <path fill-rule="evenodd" clip-rule="evenodd" d="M42 8C23.2223 8 8 23.2223 8 42V620C8 638.778 23.2223 654 42 654H998C1016.78 654 1032 638.778 1032 620V42C1032 23.2223 1016.78 8 998 8H42ZM42 16C27.6406 16 16 27.6406 16 42V620C16 634.359 27.6406 646 42 646H998C1012.36 646 1024 634.359 1024 620V42C1024 27.6406 1012.36 16 998 16H42Z" fill="black"/>
    <path fill-rule="evenodd" clip-rule="evenodd" d="M189 2C189 0.895434 188.105 3.72004e-06 187 3.67176e-06L105 0C103.895 0 103 0.895431 103 2H42C19.9086 2 2 19.9086 2 42V66C0.895431 66 0 66.8954 0 68V119C0 120.105 0.895431 121 2 121V620C2 642.091 19.9086 660 42 660H998C1020.09 660 1038 642.091 1038 620V42C1038 19.9086 1020.09 2 998 2L189 2ZM42 8H998C1016.78 8 1032 23.2223 1032 42V620C1032 638.778 1016.78 654 998 654H42C23.2223 654 8 638.778 8 620V42C8 23.2223 23.2223 8 42 8Z" fill="#D9D9D9"/>
</svg>
