<svg viewBox="0 0 335 117" fill="none" xmlns="http://www.w3.org/2000/svg">
    <path d="M0 14C0 6.26801 6.26801 0 14 0H321C328.732 0 335 6.26801 335 14V47H0V14Z" fill="white"/>
    <rect x="280.408" y="18.5027" width="22.2886" height="10.9972" rx="2.16667" stroke="black"/>
    <path d="M304.255 21.8843V26.1186C305.107 25.7599 305.661 24.9257 305.661 24.0014C305.661 23.0771 305.107 22.2429 304.255 21.8843" fill="black"/>
    <rect x="282.025" y="20.1199" width="14.82" height="7.76287" rx="1.33333" fill="#6CBD06"/>
    <path fill-rule="evenodd" clip-rule="evenodd" d="M266.496 20.4107C268.842 20.4108 271.098 21.3121 272.798 22.9284C272.926 23.0531 273.13 23.0516 273.256 22.9248L274.48 21.6898C274.544 21.6255 274.58 21.5385 274.579 21.4479C274.578 21.3573 274.542 21.2706 274.477 21.2071C270.015 16.931 262.976 16.931 258.514 21.2071C258.449 21.2706 258.413 21.3572 258.412 21.4478C258.412 21.5384 258.447 21.6255 258.511 21.6898L259.735 22.9248C259.861 23.0518 260.066 23.0533 260.194 22.9284C261.894 21.312 264.15 20.4107 266.496 20.4107ZM266.496 24.4287C267.785 24.4286 269.027 24.9076 269.983 25.7727C270.112 25.8955 270.316 25.8928 270.441 25.7667L271.664 24.5317C271.728 24.4669 271.764 24.379 271.763 24.2877C271.762 24.1964 271.725 24.1093 271.659 24.0458C268.75 21.3397 264.244 21.3397 261.335 24.0458C261.27 24.1093 261.232 24.1965 261.231 24.2878C261.23 24.3792 261.266 24.467 261.331 24.5317L262.553 25.7667C262.679 25.8928 262.882 25.8955 263.011 25.7727C263.966 24.9082 265.208 24.4292 266.496 24.4287ZM268.945 27.1321C268.946 27.2237 268.91 27.312 268.845 27.3762L266.731 29.5099C266.669 29.5726 266.584 29.6079 266.496 29.6079C266.408 29.6079 266.323 29.5726 266.261 29.5099L264.147 27.3762C264.081 27.3119 264.045 27.2236 264.047 27.1321C264.049 27.0405 264.089 26.9538 264.157 26.8924C265.507 25.7503 267.485 25.7503 268.835 26.8924C268.903 26.9538 268.943 27.0406 268.945 27.1321Z" fill="black"/>
    <path fill-rule="evenodd" clip-rule="evenodd" d="M252.033 18.3557H250.974C250.39 18.3557 249.916 18.8297 249.916 19.4143V28.5886C249.916 29.1732 250.39 29.6472 250.974 29.6472H252.033C252.617 29.6472 253.091 29.1732 253.091 28.5886V19.4143C253.091 18.8297 252.617 18.3557 252.033 18.3557ZM246.034 20.8258H247.092C247.677 20.8258 248.151 21.2997 248.151 21.8844V28.5887C248.151 29.1733 247.677 29.6472 247.092 29.6472H246.034C245.449 29.6472 244.975 29.1733 244.975 28.5887V21.8844C244.975 21.2997 245.449 20.8258 246.034 20.8258ZM242.153 23.2957H241.094C240.51 23.2957 240.036 23.7696 240.036 24.3542V28.5885C240.036 29.1732 240.51 29.6471 241.094 29.6471H242.153C242.737 29.6471 243.211 29.1732 243.211 28.5885V24.3542C243.211 23.7696 242.737 23.2957 242.153 23.2957ZM237.213 25.4127H236.154C235.569 25.4127 235.095 25.8867 235.095 26.4713V28.5884C235.095 29.1731 235.569 29.647 236.154 29.647H237.213C237.797 29.647 238.271 29.1731 238.271 28.5884V26.4713C238.271 25.8867 237.797 25.4127 237.213 25.4127Z" fill="black"/>
    <path d="M35.298 28.168C34.6167 28.168 34.0427 28.0373 33.576 27.776C33.1093 27.5053 32.7453 27.1553 32.484 26.726C32.2227 26.2967 32.0687 25.8347 32.022 25.34H33.688C33.7627 25.7693 33.94 26.1007 34.22 26.334C34.5093 26.5673 34.8733 26.684 35.312 26.684C35.9373 26.684 36.4413 26.3993 36.824 25.83C37.2067 25.2513 37.412 24.374 37.44 23.198C37.216 23.5807 36.8753 23.898 36.418 24.15C35.97 24.402 35.4753 24.528 34.934 24.528C34.3927 24.528 33.884 24.3973 33.408 24.136C32.932 23.8747 32.5447 23.506 32.246 23.03C31.9473 22.554 31.798 21.994 31.798 21.35C31.798 20.762 31.9427 20.216 32.232 19.712C32.5213 19.208 32.9227 18.802 33.436 18.494C33.9493 18.186 34.5513 18.032 35.242 18.032C35.9793 18.032 36.6 18.1673 37.104 18.438C37.608 18.7087 38.0093 19.0727 38.308 19.53C38.616 19.9873 38.8353 20.496 38.966 21.056C39.106 21.616 39.176 22.19 39.176 22.778C39.176 23.87 39.022 24.822 38.714 25.634C38.4153 26.4367 37.972 27.062 37.384 27.51C36.8053 27.9487 36.11 28.168 35.298 28.168ZM35.354 23.016C35.6993 23.016 36.012 22.9413 36.292 22.792C36.572 22.6333 36.7913 22.428 36.95 22.176C37.1087 21.9147 37.188 21.6253 37.188 21.308C37.188 20.804 37.0107 20.3887 36.656 20.062C36.3107 19.7353 35.872 19.572 35.34 19.572C34.8173 19.572 34.3833 19.7353 34.038 20.062C33.6927 20.3793 33.52 20.7853 33.52 21.28C33.52 21.8027 33.6927 22.2227 34.038 22.54C34.3833 22.8573 34.822 23.016 35.354 23.016ZM41.833 28.098C41.5064 28.098 41.2357 27.9953 41.021 27.79C40.8157 27.5847 40.713 27.3373 40.713 27.048C40.713 26.7493 40.8157 26.4973 41.021 26.292C41.2357 26.0867 41.5064 25.984 41.833 25.984C42.1597 25.984 42.4257 26.0867 42.631 26.292C42.8457 26.4973 42.953 26.7493 42.953 27.048C42.953 27.3373 42.8457 27.5847 42.631 27.79C42.4257 27.9953 42.1597 28.098 41.833 28.098ZM41.833 23.002C41.5064 23.002 41.2357 22.8993 41.021 22.694C40.8157 22.4887 40.713 22.2413 40.713 21.952C40.713 21.6533 40.8157 21.4013 41.021 21.196C41.2357 20.9907 41.5064 20.888 41.833 20.888C42.1597 20.888 42.4257 20.9907 42.631 21.196C42.8457 21.4013 42.953 21.6533 42.953 21.952C42.953 22.2413 42.8457 22.4887 42.631 22.694C42.4257 22.8993 42.1597 23.002 41.833 23.002ZM49.2557 28V26.18H44.4257V24.752L49.0177 18.2H51.0477V24.626H52.3357V26.18H51.0477V28H49.2557ZM46.3437 24.626H49.3677V20.174L46.3437 24.626ZM55.0884 28V20.244L53.4784 20.622V19.25L55.8444 18.2H56.9504V28H55.0884Z" fill="black"/>
    <rect x="121" y="10" width="93" height="27" rx="13.5" fill="#01080A"/>
    <rect y="47" width="334" height="70" fill="white"/>
    <g clip-path="url(#clip0_350_693)">
        <path d="M19.842 74.7931C21.1326 74.5837 22.4382 74.4817 23.7456 74.4883C25.7544 74.4883 27.2277 74.9557 28.1626 75.8069C29.0258 76.5555 29.5423 77.7012 29.5423 79.1077C29.5423 80.5141 29.1224 81.6598 28.3265 82.4773C27.2511 83.6244 25.4983 84.2119 23.5115 84.2119C22.9634 84.2251 22.4156 84.1759 21.8787 84.0654V90.3798H19.842V74.7931ZM21.8787 82.3996C22.4287 82.5264 22.9927 82.582 23.5568 82.5652C26.0133 82.5652 27.5072 81.3682 27.5072 79.1956C27.5072 77.1137 26.0324 76.1058 23.788 76.1058C23.1464 76.0875 22.5049 76.1426 21.8757 76.2698L21.8787 82.3996Z" fill="black"/>
        <path d="M32.0911 73.7645H34.1394V80.832H34.1891C34.536 80.2209 35.0456 79.7182 35.661 79.3801C36.2992 79.0043 37.0246 78.8022 37.7649 78.7941C39.2836 78.7941 41.7153 79.7288 41.7153 83.639V90.3783H39.664V83.8734C39.664 82.048 38.9851 80.5038 37.0465 80.5038C35.7137 80.5038 34.6602 81.437 34.2872 82.5549C34.1737 82.8675 34.124 83.1998 34.1409 83.5321V90.3812H32.0925L32.0911 73.7645Z" fill="black"/>
        <path d="M53.0177 87.6664C53.001 88.5748 53.0612 89.483 53.1977 90.3812H51.3264L51.161 88.9542H51.0864C50.4573 89.8435 49.2459 90.639 47.6306 90.639C45.3409 90.639 44.1704 89.0275 44.1704 87.3866C44.1704 84.6528 46.5991 83.1526 50.9708 83.1775V82.9387C50.9708 82.0011 50.7163 80.3163 48.3987 80.3163C47.358 80.3191 46.3386 80.6123 45.455 81.1631L44.9883 79.8006C45.9261 79.194 47.2809 78.797 48.7031 78.797C52.1662 78.797 53.0118 81.1631 53.0118 83.4324L53.0177 87.6664ZM51.0235 84.6016C48.7806 84.5576 46.2334 84.9561 46.2334 87.1507C46.2334 88.4869 47.1215 89.1169 48.1734 89.1169C48.7714 89.1334 49.359 88.9584 49.8508 88.6175C50.3426 88.2765 50.7129 87.7873 50.9079 87.2211C50.9793 87.0109 51.0183 86.7911 51.0235 86.5691V84.6016Z" fill="black"/>
        <path d="M56.3297 82.5872C56.3297 81.2555 56.3078 80.1098 56.2361 79.0535H58.0371L58.1074 81.2804H58.2025C58.716 79.7553 59.9582 78.7898 61.3349 78.7898C61.5322 78.7877 61.7288 78.8109 61.9202 78.8587V80.7969C61.6884 80.7512 61.4526 80.7296 61.2164 80.7325C59.7709 80.7325 58.7409 81.8342 58.4585 83.3696C58.4029 83.688 58.3725 84.0103 58.3678 84.3336V90.3813H56.3297V82.5872Z" fill="black"/>
        <path d="M64.0712 82.1197C64.0712 80.9477 64.0478 79.991 63.9761 79.0534H65.7757L65.8708 80.8832H65.9381C66.5716 79.8006 67.6192 78.797 69.4919 78.797C71.034 78.797 72.2016 79.7317 72.6961 81.0664H72.74C73.0513 80.4912 73.4812 79.9888 74.0011 79.5925C74.6815 79.0783 75.4247 78.797 76.5016 78.797C77.9998 78.797 80.2163 79.78 80.2163 83.7137V90.3812H78.2075V83.9643C78.2075 81.7886 77.4131 80.476 75.7539 80.476C74.5835 80.476 73.6734 81.3418 73.3237 82.3498C73.2143 82.6806 73.1575 83.0267 73.1555 83.3753V90.3812H71.1511V83.5951C71.1511 81.7945 70.3551 80.4818 68.7867 80.4818C67.505 80.4818 66.5716 81.5074 66.2424 82.5402C66.1281 82.8617 66.0725 83.2011 66.0785 83.5423V90.3812H64.0712V82.1197Z" fill="black"/>
        <path d="M91.5072 87.6666C91.4921 88.5753 91.5558 89.4836 91.6974 90.3813H89.8276L89.6652 88.9544H89.5935C88.9629 89.8436 87.75 90.6392 86.1318 90.6392C83.8421 90.6392 82.6731 89.0276 82.6731 87.3867C82.6731 84.6529 85.1047 83.1527 89.475 83.1776V82.9388C89.475 82.0012 89.2219 80.3164 86.9029 80.3164C85.8623 80.3189 84.8429 80.6116 83.9591 81.1617L83.4895 79.7992C84.4273 79.1927 85.7822 78.7957 87.2072 78.7957C90.6703 78.7957 91.5072 81.1617 91.5072 83.4311V87.6666ZM89.5233 84.6017C87.2818 84.5577 84.7287 84.9562 84.7287 87.1509C84.7287 88.487 85.6168 89.117 86.6688 89.117C87.2673 89.1346 87.8558 88.9601 88.3483 88.619C88.8408 88.278 89.2115 87.7882 89.4062 87.2212C89.4781 87.0111 89.5175 86.7913 89.5233 86.5692V84.6017Z" fill="black"/>
        <path d="M102.891 89.9622C102.355 90.242 101.163 90.6391 99.6488 90.6391C96.2324 90.6391 94.0085 88.295 94.0085 84.8345C94.0085 81.3477 96.3934 78.8204 100.088 78.8204C101.304 78.8204 102.379 79.1237 102.944 79.4065L102.474 80.9946C101.985 80.7162 101.213 80.4569 100.088 80.4569C97.498 80.4569 96.092 82.3776 96.092 84.7407C96.092 87.3632 97.7716 88.9806 100.019 88.9806C100.892 88.9842 101.755 88.7915 102.544 88.4166L102.891 89.9622Z" fill="black"/>
        <path d="M106.306 85.0925C106.352 87.8761 108.132 89.0276 110.185 89.0276C111.661 89.0276 112.546 88.7683 113.317 88.4416L113.674 89.9169C112.943 90.2451 111.705 90.6421 109.905 90.6421C106.423 90.6421 104.346 88.3302 104.346 84.9108C104.346 81.4914 106.353 78.8 109.652 78.8C113.345 78.8 114.334 82.051 114.334 84.1373C114.33 84.4578 114.306 84.7778 114.262 85.0954L106.306 85.0925ZM112.337 83.6186C112.363 82.3074 111.799 80.2695 109.486 80.2695C107.405 80.2695 106.496 82.1902 106.333 83.6186H112.337Z" fill="black"/>
        <path d="M116.871 82.5871C116.871 81.2554 116.848 80.1097 116.782 79.0534H118.579L118.65 81.2803H118.744C119.258 79.7552 120.5 78.7897 121.875 78.7897C122.072 78.7873 122.269 78.8105 122.46 78.8586V80.7968C122.229 80.7508 121.994 80.7292 121.758 80.7324C120.309 80.7324 119.282 81.8341 119.003 83.3695C118.944 83.6875 118.913 84.0101 118.909 84.3335V90.3812H116.871V82.5871Z" fill="black"/>
        <path d="M124.608 90.3813V79.0535H126.665V90.3813H124.608Z" fill="black"/>
        <path d="M129.797 88.2774C130.613 88.7849 131.548 89.066 132.508 89.092C133.998 89.092 134.703 88.3448 134.703 87.4101C134.703 86.4271 134.118 85.885 132.603 85.3283C130.567 84.5957 129.609 83.475 129.609 82.1183C129.609 80.2914 131.08 78.7956 133.509 78.7956C134.48 78.7879 135.437 79.0284 136.289 79.4944L135.775 80.9932C135.077 80.5667 134.276 80.3412 133.458 80.3412C132.242 80.3412 131.556 81.043 131.556 81.8825C131.556 82.823 132.235 83.2406 133.707 83.8061C135.67 84.5562 136.675 85.5363 136.675 87.2197C136.675 89.2107 135.132 90.6376 132.445 90.6376C131.343 90.6471 130.257 90.3738 129.29 89.8436L129.797 88.2774Z" fill="black"/>
        <path d="M126.615 64H124.51V74.8575H126.615V64Z" fill="black"/>
        <path d="M39.1329 94.7604H32.9045V100.999H39.1329V94.7604Z" fill="#31B7BC"/>
        <path d="M98.3001 94.7604H92.0718V100.997H98.3001V94.7604Z" fill="#F39118"/>
        <path d="M106.751 94.7604H100.522V101H106.751V94.7604Z" fill="#273C4E"/>
        <path d="M115.203 94.7604H108.975V100.999H115.203V94.7604Z" fill="#927145"/>
        <path d="M132.138 94.7604H125.91V100.999H132.138V94.7604Z" fill="#EE7402"/>
        <path d="M123.664 94.7604H117.436V101H123.664V94.7604Z" fill="#FCD1A9"/>
        <path d="M47.5853 94.7589H41.3569V100.999H47.5853V94.7589Z" fill="#65B32E"/>
        <path d="M81.3944 94.7604H75.166V100.999H81.3944V94.7604Z" fill="#E62987"/>
        <path d="M72.9422 94.7604H66.7139V100.999H72.9422V94.7604Z" fill="#A8B1B6"/>
        <path d="M89.846 94.7604H83.6177V100.999H89.846V94.7604Z" fill="#8A62A6"/>
        <path d="M22.2284 94.7622H16V101.002H22.2284V94.7622Z" fill="#0076BF"/>
        <path d="M30.6808 94.7604H24.4524V100.999H30.6808V94.7604Z" fill="#A91C3A"/>
        <path d="M64.4896 94.7604H58.2612V101H64.4896V94.7604Z" fill="#EA4C6E"/>
        <path d="M140.536 94.7604H134.308V101H140.536V94.7604Z" fill="#602651"/>
        <path d="M56.0389 94.7604H49.8076V101H56.0389V94.7604Z" fill="#00461A"/>
    </g>
    <path d="M225.352 72.059C224.218 72.0608 223.131 72.512 222.33 73.3137C221.528 74.1154 221.077 75.2022 221.075 76.336V77.745H218.232V93.351H232.424V77.745H229.632V76.336C229.63 75.2017 229.178 74.1144 228.376 73.3127C227.574 72.5109 226.486 72.06 225.352 72.059V72.059ZM225.352 73.478C225.728 73.475 226.101 73.547 226.449 73.6895C226.797 73.8321 227.113 74.0425 227.379 74.3085C227.645 74.5745 227.856 74.8907 227.998 75.2388C228.141 75.5869 228.213 75.9598 228.21 76.336V77.745H222.494V76.336C222.491 75.9598 222.563 75.5869 222.706 75.2388C222.848 74.8907 223.059 74.5745 223.324 74.3085C223.59 74.0425 223.907 73.8321 224.255 73.6895C224.603 73.547 224.976 73.475 225.352 73.478V73.478ZM219.652 79.164H221.075V81.994H222.494V79.164H228.21V81.994H229.632V79.164H231.007V91.93H219.655L219.652 79.164Z" fill="#323F49"/>
    <path d="M263.386 88.069C264.895 88.069 266.371 87.6215 267.625 86.783C268.88 85.9444 269.858 84.7526 270.436 83.3583C271.014 81.9639 271.165 80.4295 270.87 78.9493C270.576 77.469 269.849 76.1093 268.782 75.0421C267.715 73.9749 266.355 73.2481 264.875 72.9536C263.394 72.6592 261.86 72.8103 260.466 73.3879C259.071 73.9655 257.879 74.9435 257.041 76.1985C256.202 77.4534 255.755 78.9287 255.755 80.438C255.757 82.4612 256.562 84.401 257.992 85.8316C259.423 87.2622 261.363 88.0669 263.386 88.069V88.069ZM263.386 74.334C264.592 74.334 265.772 74.6918 266.775 75.362C267.778 76.0323 268.56 76.985 269.022 78.0996C269.483 79.2143 269.604 80.4408 269.369 81.6241C269.133 82.8073 268.552 83.8943 267.699 84.7474C266.846 85.6005 265.759 86.1814 264.576 86.4168C263.393 86.6522 262.166 86.5314 261.052 86.0697C259.937 85.608 258.984 84.8261 258.314 83.823C257.644 82.8198 257.286 81.6405 257.286 80.434C257.289 78.8171 257.932 77.2672 259.076 76.1239C260.219 74.9805 261.769 74.3369 263.386 74.334V74.334Z" fill="#323F49"/>
    <path d="M267.707 85.8365L273.529 91.658L274.608 90.5791L268.786 84.7576L267.707 85.8365Z" fill="#323F49"/>
    <g clip-path="url(#clip1_350_693)">
        <path d="M296 74.587H314V76.587H296V74.587ZM296 81.587H308V83.587H296V81.587ZM296 88.587H314V90.587H296V88.587Z" fill="#323F49"/>
    </g>
    <defs>
        <clipPath id="clip0_350_693">
            <rect width="124.537" height="37" fill="white" transform="translate(16 64)"/>
        </clipPath>
        <clipPath id="clip1_350_693">
            <rect width="24" height="24" fill="white" transform="translate(293 70.5)"/>
        </clipPath>
    </defs>
</svg>
