<svg viewBox="0 0 42 42" fill="none" xmlns="http://www.w3.org/2000/svg">
    <rect width="42" height="42" rx="5" fill="#CBD1D5"/>
    <path d="M23.8732 31.3445C24.0314 31.3444 24.186 31.2975 24.3176 31.2096C24.4491 31.1217 24.5516 30.9967 24.6121 30.8505C24.6726 30.7044 24.6883 30.5436 24.6574 30.3884C24.6265 30.2333 24.5503 30.0908 24.4384 29.9789L15.1452 20.6857L24.4384 11.3925C24.5841 11.2417 24.6647 11.0397 24.6629 10.83C24.6611 10.6203 24.577 10.4197 24.4287 10.2714C24.2804 10.1231 24.0798 10.039 23.8701 10.0371C23.6604 10.0353 23.4583 10.1159 23.3075 10.2616L13.4486 20.1206C13.2986 20.2705 13.2144 20.4739 13.2144 20.686C13.2144 20.8981 13.2986 21.1015 13.4486 21.2515L23.3075 31.1104C23.3818 31.1847 23.47 31.2436 23.5671 31.2837C23.6641 31.3239 23.7682 31.3445 23.8732 31.3445Z" fill="white"/>
</svg>
